<svg width="476" height="304" viewBox="0 0 476 304" fill="none" xmlns="http://www.w3.org/2000/svg">
<path opacity="0.1" d="M145.775 1.19037C218.524 -3.29458 294.796 20.0652 283.586 53.9262C272.375 87.7872 343.526 41.8989 371.925 54.1077C392.141 62.7993 384.06 89.2597 393.839 99.9216C416.265 124.362 439.198 93.5839 467.733 112.054C496.269 130.525 437.843 302.911 408.027 303.874L67.9808 301.686L43.5777 299.356C43.5777 299.356 -23.9246 260.136 24.3627 223.962C57.0124 199.501 33.5204 181.741 29.9689 170.542C25.892 157.685 16.378 135.233 57.8275 118.753C99.277 102.274 88.5754 66.4218 87.5554 58.997C86.5353 51.5722 73.0339 5.6736 145.775 1.19037Z" fill="#9BC1F9"/>
<path d="M63.1297 225.412C55.3077 213.025 53.414 197.778 53.2058 187.168C52.9764 175.651 54.6244 166.957 54.6407 166.871L54.099 166.686C54.0827 166.772 52.42 175.53 52.6494 187.123C52.8609 197.839 54.7757 213.24 62.6954 225.782L63.1297 225.412Z" fill="#3C8F7C"/>
<path d="M56.3862 164.697C56.2919 167.308 55.3141 169.536 53.8434 170.932C52.4882 169.168 51.6797 166.712 51.774 164.099C51.8684 161.486 52.8462 159.259 54.3168 157.865C55.672 159.628 56.4806 162.085 56.3862 164.697Z" fill="#3C8F7C"/>
<path d="M51.5884 170.9C52.9192 173.107 53.3943 175.658 53.0673 177.901C51.1297 177.472 49.2197 176.069 47.8889 173.864C46.5581 171.658 46.0847 169.106 46.4117 166.862C48.3493 167.291 50.2593 168.694 51.5884 170.9Z" fill="#3C8F7C"/>
<path d="M48.9952 178.084C50.9347 179.379 52.3505 181.394 52.9664 183.738C51.1345 184.388 48.9513 184.123 46.9551 182.806C45.015 181.513 43.5989 179.497 42.9839 177.153C44.8157 176.505 46.999 176.769 48.9952 178.084Z" fill="#3C8F7C"/>
<path d="M53.026 193.066C53.7842 191.899 52.6775 189.691 50.5541 188.134C48.4307 186.578 46.0948 186.263 45.3366 187.431C44.5785 188.598 45.6852 190.806 47.8085 192.363C49.9319 193.919 52.2678 194.234 53.026 193.066Z" fill="#3C8F7C"/>
<path d="M56.1813 175.986C56.9722 175.473 57.8625 175.158 58.7849 175.064C59.7073 174.97 60.6377 175.1 61.506 175.443C61.3249 176.447 60.9484 177.399 60.4007 178.238C59.8529 179.078 59.1461 179.787 58.3255 180.319C57.5346 180.832 56.6443 181.147 55.7219 181.241C54.7995 181.335 53.869 181.205 53.0007 180.862C53.1819 179.858 53.5584 178.907 54.1061 178.067C54.6538 177.227 55.3607 176.519 56.1813 175.986Z" fill="#3C8F7C"/>
<path d="M56.2188 182.799C57.0097 182.286 57.8999 181.971 58.8224 181.877C59.7448 181.783 60.6753 181.913 61.5436 182.257C61.3626 183.26 60.9861 184.211 60.4384 185.051C59.8906 185.89 59.1837 186.598 58.363 187.13C57.5721 187.644 56.6816 187.96 55.7588 188.054C54.8361 188.149 53.9052 188.019 53.0366 187.675C53.2184 186.672 53.5954 185.72 54.1434 184.88C54.6913 184.041 55.3982 183.332 56.2188 182.799Z" fill="#3C8F7C"/>
<path d="M55.0685 286.25C38.6712 279.907 27.2018 264.78 20.4681 253.205C13.157 240.642 9.69172 229.434 9.65756 229.322L8.93359 229.628C8.96776 229.74 12.4574 241.034 19.8141 253.682C26.6128 265.371 38.1978 280.644 54.8017 287.073L55.0685 286.25Z" fill="#96D9C9"/>
<path d="M10.2986 225.251C11.7375 228.115 12.0791 231.459 11.2519 234.584C8.64893 233.909 6.22977 231.95 4.7363 228.962C3.29722 226.098 2.95565 222.754 3.78295 219.629C6.38921 220.303 8.80511 222.263 10.2986 225.251Z" fill="#96D9C9"/>
<path d="M8.69273 236.677C10.0482 237.24 11.278 238.098 12.3036 239.195C13.3292 240.292 14.128 241.604 14.6487 243.048C13.3737 243.747 11.9718 244.147 10.5384 244.219C9.10499 244.292 7.67371 244.036 6.3419 243.468C4.98696 242.905 3.75763 242.047 2.73259 240.95C1.70755 239.853 0.909382 238.541 0.38916 237.097C1.66378 236.398 3.0651 235.999 4.49789 235.927C5.93068 235.854 7.36137 236.11 8.69273 236.677Z" fill="#96D9C9"/>
<path d="M10.9299 254.255C15.1435 253.618 18.3456 251.507 18.0819 249.542C17.8183 247.576 14.1888 246.5 9.97514 247.138C5.76152 247.776 2.55943 249.886 2.82308 251.852C3.08673 253.817 6.71628 254.893 10.9299 254.255Z" fill="#96D9C9"/>
<path d="M16.7102 264.246C20.9238 263.609 24.1259 261.498 23.8622 259.532C23.5986 257.567 19.969 256.491 15.7554 257.128C11.5418 257.766 8.33971 259.877 8.60336 261.842C8.86701 263.808 12.4966 264.884 16.7102 264.246Z" fill="#96D9C9"/>
<path d="M15.4866 241.541C15.6493 238.387 16.8922 235.539 18.7143 233.591C20.3412 235.468 21.275 238.274 21.1091 241.43C20.9432 244.586 19.7051 247.433 17.883 249.381C16.261 247.498 15.3207 244.692 15.4866 241.541Z" fill="#96D9C9"/>
<path d="M21.5239 251.878C21.6459 248.722 22.8449 245.85 24.641 243.871C26.289 245.715 27.2684 248.501 27.1464 251.658C27.0243 254.816 25.8237 257.687 24.0293 259.664C22.3812 257.82 21.4002 255.034 21.5239 251.878Z" fill="#96D9C9"/>
<path d="M25.8075 267.431C26.3447 267.121 26.941 266.945 27.5515 266.915C28.1621 266.885 28.7711 267.002 29.3329 267.258C29.1685 267.913 28.8796 268.525 28.484 269.057C28.0883 269.589 27.5944 270.029 27.0325 270.35C26.4952 270.659 25.899 270.836 25.2884 270.866C24.6779 270.896 24.0689 270.778 23.5071 270.523C23.6711 269.868 23.9599 269.255 24.3556 268.724C24.7513 268.192 25.2454 267.752 25.8075 267.431Z" fill="#96D9C9"/>
<path d="M94.3901 269.475C94.3901 269.475 107.137 239.576 102.876 232.904C96.9865 223.686 89.6624 251.976 89.3061 249.496C85.9336 226.012 86.638 196.394 70.8638 191.905C61.8965 189.353 71.4576 214.028 70.3432 220.381C69.2288 226.734 54.312 204.043 45.1266 192.037C35.9413 180.03 30.3139 186.653 35.6387 201.221C40.7894 215.307 59.4448 231.812 55.2686 233.224C51.0924 234.636 27.6752 215.015 24.1465 222.246C19.819 231.112 55.8917 246.764 52.2735 248.53C48.6553 250.296 31.469 241.993 31.469 249.048C31.469 256.103 55.2214 257.877 54.5967 260.931C53.5978 265.875 38.681 253.215 37.5145 260.077C36.3236 267.094 57.7626 267.626 57.0142 273.115C56.5847 276.269 51.1835 272.968 50.2074 277.305C47.9802 287.194 81.7688 301.05 81.7688 301.05L94.3901 269.475Z" fill="#3C8F7C"/>
<path d="M117.433 276.06C122.563 278.613 121.175 284.952 121.175 284.952C121.175 284.952 135.081 273.416 140.281 280.149C145.48 286.883 142.747 300.08 136.65 302.225C130.552 304.37 77.5161 302.868 77.5161 302.868C77.5161 302.868 112.819 273.763 117.433 276.06Z" fill="#96D9C9"/>
<path d="M81.0936 292.324L81.5816 291.878C70.4392 277.458 65.6806 259.386 63.6519 246.757C61.4491 233.058 61.8948 222.64 61.8997 222.536L61.2229 222.407C61.2229 222.512 60.769 233 62.9832 246.776C65.0315 259.515 69.8324 277.749 81.0936 292.324Z" fill="#50BFA5"/>
<path d="M63.3931 220.246C63.7184 223.357 62.9652 226.048 61.501 227.775C59.5272 225.575 58.2826 222.751 57.956 219.731C57.6307 216.62 58.3839 213.931 59.8481 212.203C61.8219 214.403 63.0665 217.227 63.3931 220.246Z" fill="#50BFA5"/>
<path d="M59.0462 227.495C60.9561 230.063 61.9355 233.079 61.9339 235.763C59.6188 235.334 57.1753 233.748 55.2637 231.178C53.3521 228.608 52.3744 225.594 52.376 222.91C54.691 223.338 57.1362 224.926 59.0462 227.495Z" fill="#50BFA5"/>
<path d="M57.2534 236.154C59.7327 237.633 61.6819 239.942 62.7978 242.721C60.787 243.572 58.2165 243.35 55.6883 241.869C53.2092 240.393 51.2593 238.087 50.1423 235.31C52.1532 234.455 54.7236 234.672 57.2534 236.154Z" fill="#50BFA5"/>
<path d="M61.7744 250.409C62.8504 250.951 63.726 251.858 64.2635 252.987C63.4501 253.418 62.3812 253.414 61.2879 252.877C60.212 252.334 59.3363 251.427 58.7988 250.298C59.609 249.868 60.6893 249.871 61.7744 250.409Z" fill="#50BFA5"/>
<path d="M63.146 255.725C64.2228 256.268 65.0991 257.175 65.6367 258.305C64.8233 258.734 63.7528 258.731 62.6612 258.193C61.5846 257.651 60.7083 256.744 60.1704 255.614C60.9806 255.182 62.0543 255.194 63.146 255.725Z" fill="#50BFA5"/>
<path d="M65.2136 233.352C67.0031 231.99 69.2206 231.753 71.2834 232.488C71.1858 234.861 70.2081 237.063 68.4234 238.423C66.6387 239.783 64.418 240.023 62.3535 239.287C62.4528 236.914 63.4289 234.712 65.2136 233.352Z" fill="#50BFA5"/>
<path d="M66.4029 241.458C68.1925 240.096 70.4083 239.859 72.4712 240.594C72.3735 242.967 71.3958 245.169 69.6111 246.529C67.8264 247.889 65.6058 248.127 63.5413 247.393C63.6405 245.018 64.6166 242.818 66.4029 241.458Z" fill="#50BFA5"/>
<path d="M67.1822 253.162C68.3454 252.277 69.7852 252.125 71.1339 252.593C71.0704 254.138 70.4343 255.571 69.2711 256.458C68.1079 257.344 66.6681 257.495 65.321 257.026C65.3845 255.479 66.0206 254.048 67.1822 253.162Z" fill="#50BFA5"/>
<path d="M89.4964 303.145C89.4964 303.145 73.2065 280.927 66.3947 277.522C59.1389 273.893 65.43 286.465 65.43 286.465C65.43 286.465 49.9161 270.274 46.2719 274.316C42.6277 278.359 46.5192 282.142 46.5192 282.142C46.5192 282.142 33.527 279.579 31.6333 284.748C28.7228 292.699 50.0902 296.644 50.0902 296.644C50.0902 296.644 39.8653 294.254 41.9054 299.176C44.9932 306.594 89.4964 303.145 89.4964 303.145Z" fill="#50BFA5"/>
<path d="M31.6367 284.748C33.5304 279.579 46.5226 282.142 46.5226 282.142C46.5226 282.142 42.6311 278.354 46.2753 274.316C49.9195 270.279 62.0642 279.821 62.0642 279.821C62.0642 279.821 60.1819 271.046 69.3038 277.949C75.821 282.878 88.3968 301.269 88.3968 301.269L31.6367 284.748Z" fill="#96D9C9"/>
<path d="M77.5193 302.811C77.5193 302.811 103.474 304.761 108.531 299.823C113.587 294.885 108.57 285.941 108.57 285.941C108.57 285.941 117.477 278.461 117.339 273.577C117.2 268.693 111.396 271.171 111.396 271.171C111.396 271.171 121.232 257.718 118.899 255.158C114.553 250.393 103.182 264.377 103.182 264.377C103.182 264.377 106.557 257.725 102.996 256.669C97.6275 255.075 93.679 271.482 93.679 271.482C93.679 271.482 94.6796 265.003 90.9801 265.863C84.3391 267.407 77.5193 302.811 77.5193 302.811Z" fill="#50BFA5"/>
<path d="M99.0736 303.115H96.9001L104.997 258.425L106.803 258.789L99.0736 303.115Z" fill="#0E2E35"/>
<path d="M341.965 226.79L344.06 221.392C345.687 217.417 349.847 215.526 353.353 217.158C362.188 221.269 366.029 232.713 361.933 242.716L358.938 250.032C357.625 253.236 358.082 256.76 359.852 259.247C361.458 261.504 361.721 264.643 360.607 267.37L359.027 271.228C358.2 273.256 356.968 275.07 355.418 276.545C353.867 278.019 352.034 279.119 350.045 279.769C348.84 280.172 347.731 280.847 346.795 281.749C345.859 282.65 345.118 283.757 344.623 284.992L342.386 290.454C339.915 296.489 333.59 299.372 328.258 296.892L325.219 295.464C319.888 292.984 317.573 286.079 320.043 280.042C324.04 272.825 323.721 267.438 322.304 263.784C321.262 261.071 320.743 258.164 320.776 255.235C320.81 252.305 321.396 249.412 322.499 246.727L322.815 245.957C323.966 243.132 325.672 240.601 327.816 238.532C329.961 236.463 332.497 234.903 335.254 233.957C337.666 233.141 340.187 231.14 341.965 226.79Z" fill="#50BFA5"/>
<path d="M303.884 302.617C308.171 296.691 331.997 265.219 347.322 259.928C364.241 254.088 348.298 277.282 348.298 277.282C348.298 277.282 378.317 242.291 389.334 245.445C399.432 248.336 389.334 270.027 389.334 270.027C389.334 270.027 400.708 258.015 414.5 258.015C427.924 258.015 405.18 301.684 403.95 303.965L303.884 302.617Z" fill="#96D9C9"/>
<path d="M394.33 235.264C382.064 255.684 373.129 279.379 368.011 303.476L366.796 303.461C371.893 279.868 381.143 255.988 393.387 235.59C396.232 230.849 399.305 225.22 404.635 223.376C404.738 223.342 404.777 223.508 404.679 223.549C399.811 225.502 396.992 230.825 394.33 235.264Z" fill="#3C8F7C"/>
<path d="M370.799 303.52C385.018 282.897 401.973 264.571 421.135 249.109C421.332 248.95 421.599 249.318 421.4 249.481C402.588 264.88 385.968 283.084 372.054 303.53L370.799 303.52Z" fill="#3C8F7C"/>
<path d="M395.451 222.6C395.767 223.096 396.976 224.387 397.33 226.083C397.807 227.692 397.431 229.712 397.391 229.635C397.3 229.676 398.788 228.333 399.253 226.197C399.857 224.149 399.436 221.309 398.686 220.367C397.384 218.24 395.129 218.024 394.692 219.056C394.225 220.081 394.815 221.475 395.451 222.6Z" fill="#3C8F7C"/>
<path d="M398.384 240.827C397.927 240.481 396.74 239.168 395.157 238.753C393.657 238.214 391.76 238.58 391.825 238.62C391.786 238.717 393.074 237.154 395.087 236.702C397.019 236.1 399.676 236.605 400.543 237.422C402.513 238.843 402.671 241.257 401.695 241.705C400.724 242.184 399.429 241.527 398.384 240.827Z" fill="#3C8F7C"/>
<path d="M393.956 248.815C393.499 248.469 392.311 247.156 390.728 246.741C389.228 246.2 387.332 246.568 387.397 246.606C387.358 246.703 388.646 245.143 390.65 244.688C392.583 244.087 395.24 244.591 396.107 245.409C398.077 246.829 398.235 249.244 397.259 249.691C396.297 250.172 395.001 249.515 393.956 248.815Z" fill="#3C8F7C"/>
<path d="M409.752 267.344C409.294 266.999 408.107 265.685 406.522 265.271C405.024 264.73 403.127 265.098 403.192 265.136C403.153 265.232 404.441 263.672 406.446 263.217C408.379 262.616 411.035 263.12 411.902 263.938C413.872 265.359 414.03 267.773 413.054 268.221C412.094 268.701 410.793 268.044 409.752 267.344Z" fill="#3C8F7C"/>
<path d="M417.821 259.767C417.364 259.422 416.176 258.107 414.593 257.693C413.093 257.153 411.196 257.521 411.261 257.559C411.222 257.655 412.511 256.095 414.515 255.64C416.448 255.039 419.105 255.545 419.972 256.361C421.942 257.783 422.1 260.198 421.123 260.645C420.162 261.122 418.865 260.466 417.821 259.767Z" fill="#3C8F7C"/>
<path d="M389.255 231.639C389.64 232.075 391.025 233.147 391.627 234.762C392.334 236.271 392.261 238.323 392.211 238.261C392.126 238.316 393.398 236.74 393.543 234.553C393.834 232.429 392.998 229.695 392.118 228.891C390.525 227.008 388.261 227.175 387.981 228.267C387.672 229.356 388.461 230.635 389.255 231.639Z" fill="#3C8F7C"/>
<path d="M382.744 240.699C383.292 241.009 385.205 241.563 386.16 243.098C387.25 244.457 387.388 246.781 387.317 246.728C387.214 246.828 388.68 244.481 388.618 241.978C388.755 239.474 387.359 236.805 386.129 236.313C383.852 234.93 380.941 236.164 380.702 237.512C380.434 238.878 381.602 239.94 382.744 240.699Z" fill="#3C8F7C"/>
<path d="M375.89 254.42C376.479 254.628 378.455 254.838 379.645 256.171C380.933 257.315 381.434 259.583 381.358 259.548C381.273 259.666 382.35 257.094 381.891 254.634C381.629 252.14 379.833 249.761 378.543 249.494C376.083 248.549 373.405 250.279 373.381 251.65C373.326 253.039 374.645 253.877 375.89 254.42Z" fill="#3C8F7C"/>
<path d="M396.17 263.979C396.598 264.265 398.123 264.844 398.829 266.138C399.642 267.31 399.631 269.209 399.574 269.166C399.484 269.24 400.804 267.426 400.887 265.383C401.131 263.354 400.138 261.098 399.164 260.621C397.386 259.367 394.95 260.186 394.683 261.268C394.387 262.357 395.282 263.293 396.17 263.979Z" fill="#3C8F7C"/>
<path d="M406.725 225.813C406.47 225.587 405.821 224.755 404.902 224.431C404.036 224.04 402.899 224.166 402.936 224.195C402.909 224.251 403.735 223.387 404.944 223.212C406.112 222.948 407.663 223.369 408.142 223.893C409.25 224.826 409.244 226.263 408.648 226.485C408.053 226.708 407.316 226.275 406.725 225.813Z" fill="#3C8F7C"/>
<path d="M404.269 219.982C404.28 220.338 404.503 221.392 404.178 222.364C403.939 223.331 403.151 224.215 403.151 224.164C403.094 224.154 404.24 223.992 405.103 223.07C406.013 222.246 406.646 220.678 406.55 219.959C406.534 218.456 405.463 217.583 404.936 217.953C404.409 218.323 404.285 219.202 404.269 219.982Z" fill="#3C8F7C"/>
<path d="M423.632 252.047C423.377 251.821 422.728 250.989 421.808 250.665C420.943 250.276 419.806 250.4 419.843 250.43C419.816 250.485 420.642 249.622 421.851 249.448C423.019 249.182 424.569 249.603 425.049 250.129C426.157 251.06 426.151 252.497 425.555 252.721C424.96 252.946 424.221 252.509 423.632 252.047Z" fill="#3C8F7C"/>
<path d="M420.666 246.166C420.705 246.511 421.008 247.548 420.758 248.547C420.595 249.532 419.877 250.481 419.874 250.433C419.817 250.433 420.946 250.156 421.74 249.171C422.584 248.269 423.094 246.653 422.942 245.938C422.811 244.441 421.677 243.665 421.18 244.08C420.684 244.494 420.622 245.388 420.666 246.166Z" fill="#3C8F7C"/>
<path d="M407.315 280.032C407.396 280.58 407.931 282.17 407.601 283.741C407.406 285.296 406.343 286.819 406.337 286.743C406.244 286.743 407.99 286.24 409.171 284.646C410.433 283.183 411.123 280.625 410.851 279.52C410.555 277.192 408.736 276.064 407.99 276.741C407.243 277.419 407.199 278.82 407.315 280.032Z" fill="#3C8F7C"/>
<path d="M396.281 284.242C396.362 284.79 396.898 286.38 396.567 287.951C396.372 289.507 395.31 291.031 395.302 290.955C395.211 290.955 396.956 290.45 398.137 288.857C399.4 287.393 400.098 284.835 399.818 283.731C399.52 281.404 397.703 280.274 396.956 280.951C396.21 281.629 396.166 283.032 396.281 284.242Z" fill="#3C8F7C"/>
<path d="M385.069 289.569C385.152 290.117 385.687 291.707 385.356 293.278C385.16 294.833 384.099 296.358 384.091 296.282C384 296.282 385.745 295.779 386.926 294.183C388.189 292.72 388.879 290.162 388.607 289.057C388.309 286.731 386.492 285.601 385.744 286.278C384.995 286.956 384.955 288.359 385.069 289.569Z" fill="#3C8F7C"/>
<path d="M410.607 291.02C410.381 290.568 409.943 289.078 408.876 288.117C407.921 287.092 406.338 286.596 406.372 286.656C406.309 286.713 407.856 286.043 409.56 286.515C411.256 286.843 413.111 288.312 413.484 289.292C414.482 291.193 413.737 293.094 412.833 293.044C411.928 292.994 411.157 291.981 410.607 291.02Z" fill="#3C8F7C"/>
<path d="M399.131 295.35C398.905 294.899 398.466 293.407 397.4 292.446C396.445 291.422 394.862 290.926 394.897 290.986C394.831 291.045 396.379 290.372 398.084 290.846C399.78 291.173 401.635 292.643 402.006 293.623C403.005 295.514 402.26 297.426 401.355 297.374C400.438 297.344 399.68 296.311 399.131 295.35Z" fill="#3C8F7C"/>
<path d="M419.349 286.563C419.15 286.311 418.69 285.436 417.902 284.984C417.175 284.474 416.113 284.386 416.148 284.418C416.114 284.463 417.003 283.826 418.132 283.881C419.238 283.848 420.585 284.51 420.94 285.073C421.802 286.121 421.571 287.427 420.993 287.521C420.416 287.614 419.812 287.089 419.349 286.563Z" fill="#3C8F7C"/>
<path d="M418.024 280.811C417.979 281.136 418.024 282.139 417.565 282.965C417.196 283.803 416.34 284.469 416.348 284.424C416.298 284.403 417.368 284.453 418.301 283.774C419.259 283.186 420.082 281.873 420.108 281.193C420.328 279.811 419.49 278.834 418.951 279.078C418.413 279.322 418.161 280.105 418.024 280.811Z" fill="#3C8F7C"/>
<path d="M359.577 127.725C360.251 127.813 360.823 127.016 360.656 126.342C360.386 125.267 360.132 124.187 359.872 123.109C359.299 120.725 359.206 120.651 359.364 120.45C359.74 119.97 360.644 120.528 360.96 120.768C361.66 121.297 362.237 122.02 363.034 122.395C364.59 123.122 366.125 122.182 365.88 120.293C365.649 118.565 365.322 116.837 364.987 115.108C366.613 116.031 368.216 117.009 369.853 117.905C369.972 117.978 370.11 118.013 370.248 118.007C370.386 118.001 370.52 117.953 370.633 117.869C370.747 117.784 370.835 117.668 370.888 117.532C370.942 117.396 370.958 117.248 370.934 117.103C370.76 115.582 370.246 111.081 370.077 109.597C370.033 109.213 369.63 107.45 369.994 107.253C370.319 107.08 371.413 107.801 371.673 107.929C373.114 108.637 373.625 108.867 378.368 111.059C378.932 111.32 379.661 110.625 379.456 109.998C377.452 103.815 378.181 103.542 377.157 102.441C376.928 102.194 376.612 102.31 376.485 102.597C376.16 103.328 376.132 103.527 376.744 106.366C376.903 107.102 377.079 107.831 377.271 108.554C371.567 105.777 370.191 104.925 368.987 106.097C368.152 106.906 368.348 107.258 369.343 115.775C367.686 114.712 365.976 113.764 364.272 112.772C364.135 112.683 363.976 112.64 363.815 112.646C363.654 112.652 363.499 112.708 363.367 112.806C363.236 112.904 363.134 113.041 363.074 113.2C363.014 113.358 363 113.532 363.031 113.7C363.888 119.89 364.147 120.015 364.085 120.582C364.085 120.597 364.373 120.772 363.923 120.582C363.153 120.257 362.039 118.573 360.472 118.281C359.092 118.024 357.5 118.779 357.37 120.418C357.293 121.37 357.519 121.786 358.264 125.283C356.568 125.117 354.858 125.165 353.172 125.428C352.404 125.544 351.913 125.725 351.308 126.245C350.82 126.672 350.999 127.673 351.633 127.834C353.428 128.285 354.601 127.075 359.577 127.725Z" fill="#F7CC7F"/>
<path d="M386.65 152.657C386.865 150.999 387.218 149.364 387.706 147.771C387.802 147.459 387.914 146.854 388.27 146.752C389.126 146.505 389.839 148.166 392.435 149.69C393.563 150.35 395.839 151.823 396.85 150.269C397.368 149.474 397.501 148.304 397.758 147.388C397.95 146.696 398.168 146.005 398.372 145.314C402.504 148.093 402.169 148.292 403.324 148.141C403.479 148.109 403.616 148.012 403.705 147.873C403.794 147.734 403.828 147.564 403.799 147.398C403.488 146.228 403.529 146.548 398.35 142.988C397.879 142.663 397.135 142.842 396.964 143.468C396.704 144.41 395.744 148.739 395.547 149.251C395.51 149.203 395.282 149.178 395.235 149.161C393.372 148.496 391.991 147.27 390.491 145.981C389.263 144.925 387.364 144.311 386.393 146.078C385.866 147.035 385.366 149.199 385.051 150.886C382.567 149.083 380.092 147.256 377.598 145.478C377.11 145.132 376.217 145.305 376.069 146.007C375.657 147.949 375.184 149.871 374.697 151.792C373.239 150.712 371.945 149.401 370.861 147.905C370.061 146.8 368.338 147.905 370.536 150.547C371.726 152.067 373.147 153.364 374.74 154.386C375.272 154.731 376.074 154.559 376.274 153.855C376.807 151.97 377.261 150.053 377.679 148.136C380.177 149.899 382.69 151.634 385.186 153.397C385.801 153.833 386.552 153.397 386.65 152.657Z" fill="#F47458"/>
<path d="M385.443 193.886C385.29 194.47 385.535 194.951 386.024 195.214C388.41 196.494 390.837 197.531 393.499 197.875C394.883 198.048 394.997 195.82 393.662 195.561C391.578 195.153 389.458 194.617 387.496 193.694C387.99 192.102 388.644 190.571 389.448 189.128C389.756 188.58 389.611 187.668 388.95 187.481C387.309 187.013 381.042 185.445 380.969 185.499C380.996 185.446 381.011 185.386 381.013 185.326C381.088 184.591 382.231 182.388 382.485 181.283C382.768 180.053 381.374 179.132 380.481 178.748C378.67 177.967 376.202 178.748 374.601 177.4C373.062 176.107 375.843 173.817 375.071 171.097C374.478 169 372.468 168.938 369.346 168.61C368.582 168.529 367.835 168.459 367.259 169.099C367.178 169.179 367.123 169.284 367.102 169.399C367.081 169.514 367.095 169.634 367.142 169.74C367.783 170.896 368.958 170.838 371.783 171.216C372.143 171.264 372.782 171.232 373.012 171.598C373.776 172.808 371.598 174.809 372.219 177.267C372.708 179.184 374.497 180.074 376.148 180.378C377.44 180.613 379.197 180.329 380.331 181.207C379.939 182.338 379.518 183.468 379.205 184.621C378.869 185.882 379.226 186.947 380.388 187.428C381.672 187.96 383.095 188.2 384.426 188.551C385.322 188.788 386.215 189.028 387.115 189.256C386.421 190.74 385.861 192.29 385.443 193.886Z" fill="#3CB4C5"/>
<path d="M333.354 97.8286C328.027 89.4619 322.889 93.8535 324.204 97.0405C324.767 98.4059 326.285 98.9831 327.409 97.9945C327.925 97.54 327.661 96.4391 326.936 96.4494C326.337 96.4598 326.392 95.7581 327.046 95.6838C327.928 95.587 328.71 96.4995 329.28 97.0941C330.611 98.4767 332.353 100.26 332.032 102.452C331.544 105.715 327.62 108.086 323.682 104.849C318.002 100.183 321.435 89.1214 328.761 89.4204C332.747 89.5829 336.259 92.5141 337.624 96.4684C337.891 97.241 338.891 96.7519 338.83 96.0415C338.361 90.6631 333.1 87.006 328.265 87.2496C323.306 87.4985 319.66 91.821 318.969 96.8936C318.243 102.213 321.159 107.753 326.317 108.791C331.98 109.927 337.084 103.679 333.354 97.8286Z" fill="#3CB4C5"/>
<path d="M377.502 209.877C376.591 208.667 374.367 207.384 373.129 208.803C372.553 209.462 372.486 210.48 373.251 211.05C374.016 211.62 374.901 211.372 375.312 212.386C375.665 213.25 375.055 214.154 374.378 214.621C372.32 216.045 369.236 214.432 367.708 212.799C365.287 210.207 366.015 205.647 369.724 204.529C370.885 204.183 372.058 204.396 373.238 204.47C373.889 204.512 374.471 203.58 373.923 203.031C371.819 200.919 368.284 201.658 366.19 203.432C363.992 205.293 363.116 208.658 363.874 211.505C364.72 214.683 367.563 217.035 370.469 217.913C376.506 219.737 380.452 213.821 377.502 209.877Z" fill="#3C8F7C"/>
<path d="M100.61 154.794C100.772 150.679 100.203 146.612 98.4817 142.78C97.0013 139.483 93.3392 137.611 89.9992 137.607C79.3936 137.592 78.0449 152.594 71.2901 158.38C69.2272 160.148 66.922 161.588 64.9697 163.496C57.761 170.537 61.0148 183.57 67.6297 189.742C72.2239 194.026 79.4408 196.46 85.1023 193.11C88.0567 191.363 90.3083 188.458 91.8978 185.274C94.1656 180.756 95.6282 175.542 97.242 170.727C98.9584 165.603 100.398 160.266 100.61 154.794Z" fill="#0E2E35"/>
<path d="M77.8644 156.493C77.8644 156.493 70.0749 141.61 68.1731 138.446C66.2713 135.281 61.3402 122.718 61.1645 122.215C60.9888 121.712 64.5647 115.77 63.7675 115.566C62.9704 115.362 62.0919 118.703 61.2394 118.313C60.3869 117.922 57.8994 109.871 57.4146 110.271C56.5068 111.017 58.7551 115.259 58.2719 115.527C57.7888 115.794 56.3197 110.86 55.3696 111.004C54.4195 111.147 57.1787 115.527 56.9119 115.914C56.6451 116.301 53.7818 112.175 53.2644 113.055C52.983 113.532 55.8983 116.655 55.3371 116.947C54.7758 117.239 52.1858 115.219 51.9109 115.805C51.6359 116.391 54.3089 117.187 55.1077 118.743C55.9065 120.298 57.2682 120.99 57.8327 123.89C58.3972 126.79 59.2432 137.295 62.1374 142.533C65.0316 147.772 71.3992 159.37 71.3992 159.37L77.8644 156.493Z" fill="#F79C8D"/>
<path d="M119.084 211.263L106.972 201.411C106.972 201.411 105.754 192.227 104.127 184.073C102.082 184.688 100.239 186.397 98.1919 186.994L101.268 205.246L117.142 213.981L121.625 220.124L122.645 213.817L119.084 211.263Z" fill="#F48C7F"/>
<path d="M102.337 174.728C99.0232 164.013 95.3188 164.472 95.3188 164.472L98.1838 186.994C100.23 186.398 102.902 185.07 104.937 184.455C104.265 181.069 103.151 177.367 102.337 174.728Z" fill="#F7CC7F"/>
<path d="M67.4553 287.325C67.4553 287.325 66.7085 292.856 65.4233 294.648C64.9922 295.248 64.2031 296.007 63.6858 297.09C62.8805 298.779 63.3263 301.29 63.9201 302.673C64.2259 303.383 63.8989 303.381 64.5936 303.611C66.65 304.289 68.8365 303.146 69.7118 301.043C70.3193 299.55 70.6602 297.95 70.7172 296.325C70.9384 291.297 72.4026 288.741 72.4026 288.741L67.4553 287.325Z" fill="#F7A491"/>
<path d="M89.9453 289.857C89.9453 289.857 90.4073 296.102 90.0332 298.131C89.8314 299.216 88.7154 301.454 89.2197 302.476C89.724 303.497 90.3162 303.755 90.3162 303.755L103.592 303.983C104.315 303.995 103.837 303.499 103.255 303.041C102.3 302.291 101.53 301.795 98.4815 300.219C98.283 300.117 97.5591 299.624 97.2972 299.455C96.5894 298.953 95.9504 298.35 95.3986 297.662C94.4452 296.529 94.3623 291.029 94.3623 291.029L89.9453 289.857Z" fill="#F7A491"/>
<path d="M100.322 206.861C100.322 206.861 101.992 216.997 100.896 223.644C99.7994 230.291 94.5283 291.897 94.5283 291.897L88.6715 292.242C88.6715 292.242 87.4449 266.508 87.6645 262.929C87.8841 259.349 89.6168 253.362 89.6168 253.362L89.0327 232.585L96.422 205.288L100.322 206.861Z" fill="#13375B"/>
<path d="M83.1141 204.728C83.1141 204.728 78.5051 212.141 77.407 218.276C76.3089 224.412 78.2204 243.266 76.1055 251.306C74.9667 255.658 70.6311 262.377 69.9722 268.001C69.3133 273.625 66.7314 288.357 66.7314 288.357L72.5882 289.596L86.1872 252.806L96.8547 219.553L99.5878 202.427L83.1141 204.728Z" fill="#355389"/>
<path d="M86.8461 162.557C86.8461 162.557 80.7421 162.141 78.3278 164.953C75.9135 167.765 83.6851 190.013 84.1243 193.587C84.5636 197.161 81.8857 206.681 81.8857 206.681C81.8857 206.681 96.2234 209.764 100.321 206.868C100.321 206.868 100.761 181.133 100.321 178.577C99.8822 176.021 96.2234 165.615 95.3449 164.602C94.4664 163.589 86.8461 162.557 86.8461 162.557Z" fill="#FAE0B2"/>
<path d="M88.8781 153.836C88.8781 153.836 88.8472 154.028 88.7903 154.355C88.5186 155.922 87.4693 161.124 86.7616 162.554C85.9058 164.282 89.6899 169.792 93.3341 169.121C94.4176 168.921 92.4166 164.057 92.5207 163.542C92.7062 162.557 92.9551 161.211 93.2105 159.832C93.3537 159.054 93.5001 158.264 93.6367 157.523C94.0272 155.416 94.3444 153.693 94.3444 153.693L88.8781 153.836Z" fill="#F7A491"/>
<path d="M88.7904 154.355C88.8473 154.028 88.8782 153.836 88.8782 153.836L94.3364 153.691C94.3364 153.691 94.011 155.419 93.6287 157.521C93.4937 158.259 93.3489 159.044 93.2041 159.818C92.3614 159.685 91.4812 159.247 90.6011 158.421C89.6983 157.575 89.0182 156.494 88.6277 155.285C88.6911 154.916 88.7481 154.607 88.7904 154.355Z" fill="#F47458"/>
<path d="M92.5516 140.58C92.5516 140.58 89.973 140.262 88.3673 142.492C86.7616 144.721 85.0159 151.612 89.018 155.357C93.0201 159.102 96.9897 154.863 97.5705 150.367C98.1513 145.872 98.3888 140.418 92.5516 140.58Z" fill="#F7A491"/>
<path d="M98.7581 150.3C98.2798 151.294 97.4778 151.843 96.9686 151.529C96.4593 151.214 96.4301 150.146 96.9084 149.161C97.3867 148.176 98.1887 147.618 98.6979 147.932C99.2071 148.247 99.2364 149.308 98.7581 150.3Z" fill="#F7A491"/>
<path d="M92.8396 139.844C92.8396 139.844 89.4037 146.398 86.9438 146.7C84.484 147.002 84.1619 150.485 84.1619 150.485C84.1619 150.485 85.042 142.46 87.4758 140.914C89.9096 139.367 92.8396 139.844 92.8396 139.844Z" fill="#0E2E35"/>
<path d="M70.1104 299.937C66.9217 300.557 64.8003 298.565 63.6956 297.073C62.8822 298.763 62.4885 301.285 63.0856 302.673C63.611 303.896 65.1452 303.862 66.354 303.91C67.6311 303.96 68.6202 303.202 69.2531 302.009C69.603 301.35 69.8902 300.656 70.1104 299.937Z" fill="#B75742"/>
<path d="M97.3038 299.453C93.793 300.416 91.1981 299.761 89.7453 299.137C89.3711 300.269 88.8749 301.691 89.1385 302.512C89.4639 303.516 89.9194 303.742 90.3245 303.755C93.5327 303.844 102.072 303.967 104.517 304C104.594 304.001 104.67 303.978 104.735 303.934C104.8 303.891 104.852 303.829 104.884 303.755C104.917 303.681 104.929 303.599 104.919 303.518C104.909 303.437 104.878 303.361 104.828 303.298C104.221 302.526 97.5657 299.624 97.3038 299.453Z" fill="#B75742"/>
<path d="M87.5881 148.347C87.7882 149.51 87.3863 150.578 86.69 150.73C85.9937 150.883 85.2681 150.063 85.0632 148.9C84.8582 147.737 85.2649 146.669 85.9612 146.517C86.6575 146.365 87.3896 147.175 87.5881 148.347Z" fill="#F7A491"/>
<path d="M75.7085 151.669C75.7085 151.669 84.331 161.569 85.6048 165.558C86.8787 169.546 84.357 175.253 80.8625 175.504C77.3679 175.755 69.5947 157.934 69.5947 157.934L75.7085 151.669Z" fill="#F7CC7F"/>
<path d="M334.325 124.64H227.171C223.775 124.64 221.023 127.564 221.023 131.171V296.235C221.023 299.842 223.775 302.766 227.171 302.766H334.325C337.72 302.766 340.473 299.842 340.473 296.235V131.171C340.473 127.564 337.72 124.64 334.325 124.64Z" fill="#F7CC7F"/>
<path d="M330.843 139.291H231.778V166.465H330.843V139.291Z" fill="#3CB4C5"/>
<g style="mix-blend-mode:multiply" opacity="0.5">
<path d="M234.405 143.202H330.843V139.291H231.778V166.463H234.405V143.202Z" fill="#3CB4C5"/>
</g>
<path d="M259.729 174.215H232.251C231.99 174.215 231.778 174.44 231.778 174.718V183.501C231.778 183.779 231.99 184.004 232.251 184.004H259.729C259.991 184.004 260.203 183.779 260.203 183.501V174.718C260.203 174.44 259.991 174.215 259.729 174.215Z" fill="#F47458"/>
<path d="M295.049 174.215H267.571C267.309 174.215 267.097 174.44 267.097 174.718V183.501C267.097 183.779 267.309 184.004 267.571 184.004H295.049C295.31 184.004 295.522 183.779 295.522 183.501V174.718C295.522 174.44 295.31 174.215 295.049 174.215Z" fill="#F47458"/>
<path d="M330.37 174.215H302.892C302.631 174.215 302.419 174.44 302.419 174.718V183.501C302.419 183.779 302.631 184.004 302.892 184.004H330.37C330.632 184.004 330.843 183.779 330.843 183.501V174.718C330.843 174.44 330.632 174.215 330.37 174.215Z" fill="#F47458"/>
<path d="M252.718 191.757H232.837C232.252 191.757 231.778 192.261 231.778 192.882V212.578C231.778 213.199 232.252 213.703 232.837 213.703H252.718C253.303 213.703 253.777 213.199 253.777 212.578V192.882C253.777 192.261 253.303 191.757 252.718 191.757Z" fill="#F47458"/>
<path d="M278.406 191.757H258.525C257.94 191.757 257.466 192.261 257.466 192.882V212.578C257.466 213.199 257.94 213.703 258.525 213.703H278.406C278.991 213.703 279.465 213.199 279.465 212.578V192.882C279.465 192.261 278.991 191.757 278.406 191.757Z" fill="#FAE0B2"/>
<path d="M304.096 191.757H284.216C283.631 191.757 283.156 192.261 283.156 192.882V212.578C283.156 213.199 283.631 213.703 284.216 213.703H304.096C304.681 213.703 305.155 213.199 305.155 212.578V192.882C305.155 192.261 304.681 191.757 304.096 191.757Z" fill="#FAE0B2"/>
<path d="M252.718 218.812H232.837C232.252 218.812 231.778 219.316 231.778 219.937V239.633C231.778 240.254 232.252 240.758 232.837 240.758H252.718C253.303 240.758 253.777 240.254 253.777 239.633V219.937C253.777 219.316 253.303 218.812 252.718 218.812Z" fill="#F47458"/>
<path d="M278.406 218.812H258.525C257.94 218.812 257.466 219.316 257.466 219.937V239.633C257.466 240.254 257.94 240.758 258.525 240.758H278.406C278.991 240.758 279.465 240.254 279.465 239.633V219.937C279.465 219.316 278.991 218.812 278.406 218.812Z" fill="#FAE0B2"/>
<path d="M304.096 218.812H284.216C283.631 218.812 283.156 219.316 283.156 219.937V239.633C283.156 240.254 283.631 240.758 284.216 240.758H304.096C304.681 240.758 305.155 240.254 305.155 239.633V219.937C305.155 219.316 304.681 218.812 304.096 218.812Z" fill="#FAE0B2"/>
<path d="M326.358 191.755H313.327C312.737 191.756 312.154 191.881 311.61 192.122C311.065 192.362 310.571 192.714 310.155 193.158C309.739 193.602 309.409 194.128 309.185 194.707C308.96 195.286 308.845 195.906 308.846 196.532V235.981C308.845 236.607 308.96 237.227 309.185 237.806C309.409 238.385 309.739 238.912 310.155 239.355C310.571 239.799 311.065 240.151 311.61 240.392C312.154 240.632 312.737 240.757 313.327 240.758H326.358C326.947 240.757 327.531 240.632 328.075 240.392C328.619 240.151 329.113 239.799 329.529 239.355C329.945 238.912 330.275 238.385 330.5 237.806C330.724 237.227 330.839 236.607 330.838 235.981V196.532C330.839 195.906 330.724 195.286 330.5 194.707C330.275 194.128 329.945 193.602 329.529 193.158C329.113 192.714 328.619 192.362 328.075 192.122C327.531 191.881 326.947 191.756 326.358 191.755Z" fill="#FAE0B2"/>
<path d="M252.718 245.869H232.837C232.252 245.869 231.778 246.372 231.778 246.994V266.689C231.778 267.311 232.252 267.815 232.837 267.815H252.718C253.303 267.815 253.777 267.311 253.777 266.689V246.994C253.777 246.372 253.303 245.869 252.718 245.869Z" fill="#F47458"/>
<path d="M278.406 245.869H258.525C257.94 245.869 257.466 246.372 257.466 246.994V266.689C257.466 267.311 257.94 267.815 258.525 267.815H278.406C278.991 267.815 279.465 267.311 279.465 266.689V246.994C279.465 246.372 278.991 245.869 278.406 245.869Z" fill="#FAE0B2"/>
<path d="M304.096 245.869H284.216C283.631 245.869 283.156 246.372 283.156 246.994V266.689C283.156 267.311 283.631 267.815 284.216 267.815H304.096C304.681 267.815 305.155 267.311 305.155 266.689V246.994C305.155 246.372 304.681 245.869 304.096 245.869Z" fill="#FAE0B2"/>
<path d="M329.784 245.869H309.904C309.319 245.869 308.845 246.372 308.845 246.994V266.689C308.845 267.311 309.319 267.815 309.904 267.815H329.784C330.369 267.815 330.843 267.311 330.843 266.689V246.994C330.843 246.372 330.369 245.869 329.784 245.869Z" fill="#FAE0B2"/>
<path d="M252.718 272.923H232.837C232.252 272.923 231.778 273.427 231.778 274.048V293.744C231.778 294.366 232.252 294.869 232.837 294.869H252.718C253.303 294.869 253.777 294.366 253.777 293.744V274.048C253.777 273.427 253.303 272.923 252.718 272.923Z" fill="#F47458"/>
<path d="M278.406 272.923H258.525C257.94 272.923 257.466 273.427 257.466 274.048V293.744C257.466 294.366 257.94 294.869 258.525 294.869H278.406C278.991 294.869 279.465 294.366 279.465 293.744V274.048C279.465 273.427 278.991 272.923 278.406 272.923Z" fill="#FAE0B2"/>
<path d="M304.096 272.923H284.216C283.631 272.923 283.156 273.427 283.156 274.048V293.744C283.156 294.366 283.631 294.869 284.216 294.869H304.096C304.681 294.869 305.155 294.366 305.155 293.744V274.048C305.155 273.427 304.681 272.923 304.096 272.923Z" fill="#FAE0B2"/>
<path d="M329.784 272.923H309.904C309.319 272.923 308.845 273.427 308.845 274.048V293.744C308.845 294.366 309.319 294.869 309.904 294.869H329.784C330.369 294.869 330.843 294.366 330.843 293.744V274.048C330.843 273.427 330.369 272.923 329.784 272.923Z" fill="#E87B50"/>
<path d="M246.544 251.074V252.184L241.464 263.508H239.838L244.899 252.509V252.471H239.192V251.074H246.544Z" fill="white"/>
<path d="M264.615 260.352C264.615 258.782 265.495 257.673 266.93 257.023L266.912 256.966C265.62 256.316 265.064 255.238 265.064 254.173C265.064 252.203 266.626 250.863 268.671 250.863C270.932 250.863 272.063 252.376 272.063 253.924C272.063 254.977 271.575 256.105 270.143 256.833V256.89C271.596 257.502 272.494 258.592 272.494 260.103C272.494 262.265 270.753 263.718 268.527 263.718C266.087 263.718 264.615 262.168 264.615 260.352ZM270.896 260.276C270.896 258.763 269.909 258.029 268.331 257.559C266.966 257.98 266.23 258.941 266.23 260.122C266.177 261.385 267.073 262.495 268.563 262.495C269.98 262.495 270.896 261.556 270.896 260.276ZM266.554 254.054C266.554 255.296 267.432 255.965 268.778 256.349C269.783 255.984 270.554 255.22 270.554 254.092C270.554 253.096 269.998 252.064 268.581 252.064C267.271 252.07 266.554 252.987 266.554 254.059V254.054Z" fill="white"/>
<path d="M272.509 283.884C272.509 288.112 271.044 290.452 268.453 290.452C266.175 290.452 264.63 288.176 264.594 284.057C264.594 279.888 266.281 277.592 268.65 277.592C271.111 277.586 272.509 279.921 272.509 283.884ZM266.173 284.074C266.173 287.308 267.107 289.144 268.542 289.144C270.158 289.144 270.929 287.135 270.929 283.959C270.929 280.898 270.193 278.89 268.56 278.89C267.182 278.888 266.177 280.685 266.177 284.071L266.173 284.074Z" fill="white"/>
<path d="M291.732 262.322C292.157 262.347 292.584 262.328 293.006 262.265C293.918 262.143 294.772 261.72 295.446 261.055C296.217 260.31 296.773 259.22 296.988 257.747H296.934C296.604 258.179 296.185 258.525 295.708 258.757C295.232 258.989 294.712 259.102 294.188 259.087C292.09 259.087 290.744 257.401 290.744 255.284C290.744 252.932 292.34 250.865 294.727 250.865C297.113 250.865 298.586 252.939 298.586 256.107C298.586 258.843 297.723 260.754 296.577 261.942C295.648 262.877 294.456 263.461 293.184 263.606C292.704 263.689 292.217 263.72 291.73 263.701L291.732 262.322ZM292.306 255.168C292.306 256.724 293.186 257.808 294.549 257.808C295.609 257.808 296.433 257.253 296.847 256.506C296.949 256.321 296.999 256.109 296.99 255.894C296.99 253.772 296.254 252.146 294.603 252.146C293.258 252.146 292.306 253.407 292.306 255.168Z" fill="white"/>
<path d="M243.851 235.922V232.536H238.432V231.427L243.638 223.489H245.34V231.218H246.966V232.536H245.34V235.922H243.851ZM243.851 231.218V227.07C243.851 226.42 243.869 225.768 243.905 225.118H243.851C243.493 225.846 243.2 226.38 242.883 226.954L240.029 231.171V231.211L243.851 231.218Z" fill="white"/>
<path d="M271.721 224.904H267.272L266.823 228.098C267.138 228.047 267.456 228.022 267.774 228.022C268.653 228.003 269.52 228.234 270.286 228.693C271.2 229.247 271.955 230.317 271.955 231.886C271.955 234.316 270.143 236.133 267.612 236.133C266.338 236.133 265.261 235.751 264.704 235.367L265.1 234.087C265.863 234.535 266.721 234.773 267.594 234.778C269.084 234.778 270.359 233.741 270.359 232.082C270.341 230.474 269.336 229.327 267.003 229.327C266.463 229.333 265.924 229.377 265.389 229.46L266.142 223.492H271.723L271.721 224.904Z" fill="white"/>
<path d="M297.475 224.674C297.078 224.656 296.681 224.682 296.29 224.752C293.814 225.191 292.504 227.123 292.234 229.17H292.288C292.62 228.713 293.047 228.346 293.536 228.097C294.026 227.848 294.563 227.724 295.106 227.735C297.169 227.735 298.623 229.323 298.623 231.753C298.623 234.03 297.169 236.133 294.746 236.133C292.252 236.133 290.619 234.059 290.619 230.834C290.619 228.385 291.445 226.455 292.594 225.229C293.612 224.194 294.925 223.548 296.326 223.394C296.706 223.33 297.09 223.297 297.475 223.297V224.674ZM297.026 231.849C297.026 230.068 296.075 228.999 294.621 228.999C294.149 229.012 293.689 229.161 293.291 229.43C292.892 229.7 292.571 230.079 292.36 230.528C292.237 230.755 292.176 231.013 292.181 231.275C292.217 233.321 293.095 234.832 294.746 234.832C296.111 234.832 297.026 233.627 297.026 231.849Z" fill="white"/>
<path d="M242.398 198.622H242.362L240.334 199.788L240.03 198.506L242.577 197.052H243.923V209.486H242.398V198.622Z" fill="white"/>
<path d="M264.76 209.486V208.449L265.998 207.167C268.977 204.146 270.322 202.538 270.34 200.663C270.34 199.401 269.766 198.243 268.025 198.243C266.966 198.243 266.087 198.817 265.549 199.294L265.046 198.109C265.972 197.286 267.142 196.839 268.349 196.847C270.861 196.847 271.928 198.682 271.928 200.461C271.928 202.758 270.366 204.609 267.908 207.137L266.974 208.055V208.093H272.214V209.489L264.76 209.486Z" fill="white"/>
<path d="M291.193 207.555C291.977 208.049 292.867 208.319 293.778 208.338C295.805 208.338 296.433 206.956 296.415 205.929C296.398 204.189 294.927 203.442 293.401 203.442H292.519V202.179H293.398C294.546 202.179 296.001 201.548 296.001 200.075C296.001 199.082 295.407 198.2 293.954 198.2C293.117 198.226 292.306 198.512 291.621 199.023L291.208 197.799C291.818 197.32 292.997 196.843 294.258 196.843C296.555 196.843 297.597 198.297 297.597 199.807C297.597 201.09 296.879 202.179 295.444 202.733V202.773C296.879 203.079 298.047 204.227 298.047 205.967C298.047 207.956 296.593 209.697 293.794 209.697C292.493 209.697 291.336 209.258 290.762 208.855L291.193 207.555Z" fill="white"/>
<path d="M242.777 290.093C243.555 290.093 244.185 289.421 244.185 288.592C244.185 287.764 243.555 287.092 242.777 287.092C242 287.092 241.37 287.764 241.37 288.592C241.37 289.421 242 290.093 242.777 290.093Z" fill="white"/>
<path d="M328.201 217.049H320.796V209.156H318.892V217.049H311.488V219.078H318.892V226.971H320.796V219.078H328.201V217.049Z" fill="white"/>
<path d="M299.083 288.568L295.163 284.391L299.083 280.212L298.075 279.137L294.156 283.316L290.235 279.137L289.226 280.212L293.147 284.391L289.226 288.568L290.235 289.643L294.156 285.464L298.075 289.643L299.083 288.568Z" fill="white"/>
<path d="M325.587 256.409H313.187V258.433H325.587V256.409Z" fill="white"/>
<path d="M326.044 279.804H313.644V281.828H326.044V279.804Z" fill="white"/>
<path d="M326.044 284.901H313.644V286.924H326.044V284.901Z" fill="white"/>
<path d="M248.008 26.282L247.975 26.2699C247.671 26.1524 247.362 26.0487 247.048 25.9536C246.941 25.9208 246.835 25.8862 246.723 25.8551C246.61 25.824 246.495 25.7963 246.379 25.767L246.031 25.6806C245.92 25.6546 245.81 25.6322 245.706 25.6097C245.602 25.5872 245.457 25.5613 245.33 25.5388L245.005 25.4853C244.868 25.4645 244.731 25.4472 244.595 25.4299L244.295 25.3954C244.133 25.3781 243.981 25.3677 243.823 25.3574L243.574 25.3383C243.332 25.3262 243.086 25.3193 242.842 25.3193H130.32C130.058 25.3193 129.798 25.3262 129.539 25.3401C129.026 25.3695 128.515 25.4272 128.008 25.5129C127.757 25.5527 127.508 25.6011 127.261 25.6546C124.095 26.3545 121.222 28.1074 119.057 30.659C116.893 33.2106 115.549 36.4284 115.222 39.8458C115.172 40.3902 115.144 40.9415 115.144 41.4997V286.627C115.142 289.947 116.101 293.187 117.892 295.908C119.683 298.629 122.218 300.699 125.154 301.836L125.232 301.864C125.522 301.975 125.816 302.073 126.112 302.165C126.22 302.198 126.327 302.232 126.438 302.261C126.548 302.291 126.666 302.322 126.781 302.351L127.129 302.438L127.463 302.509L127.839 302.579L128.164 302.633C128.301 302.654 128.437 302.671 128.574 302.688L128.873 302.723C129.036 302.738 129.187 302.751 129.345 302.761C129.428 302.761 129.508 302.775 129.594 302.778C129.836 302.79 130.082 302.799 130.326 302.799H242.847C246.61 302.799 250.239 301.313 253.028 298.63C255.818 295.947 257.569 292.259 257.943 288.281C257.993 287.738 258.021 287.187 258.021 286.629V41.4928C258.023 38.1721 257.064 34.9312 255.272 32.2099C253.481 29.4887 250.945 27.4191 248.008 26.282Z" fill="#F47458"/>
<path d="M250.661 47.3638H122.504V280.758H250.661V47.3638Z" fill="#F3FCFF"/>
<path d="M213.965 37.1046H159.408C159.33 37.1046 159.266 37.1719 159.266 37.255V39.8785C159.266 39.9616 159.33 40.0289 159.408 40.0289H213.965C214.043 40.0289 214.107 39.9616 214.107 39.8785V37.255C214.107 37.1719 214.043 37.1046 213.965 37.1046Z" fill="white"/>
<path opacity="0.3" d="M186.508 298.712C189.985 298.712 192.803 295.708 192.803 292.002C192.803 288.297 189.985 285.293 186.508 285.293C183.032 285.293 180.214 288.297 180.214 292.002C180.214 295.708 183.032 298.712 186.508 298.712Z" fill="#DAEEF7"/>
<path opacity="0.2" d="M250.661 270.965H122.504V280.758H250.661V270.965Z" fill="#3CB4C5"/>
<path opacity="0.2" d="M250.661 47.3638H122.504V59.7488H250.661V47.3638Z" fill="#3CB4C5"/>
<g style="mix-blend-mode:multiply" opacity="0.3">
<path d="M148.342 53.0707H37.041C36.1252 53.0723 35.2186 53.2655 34.3731 53.6393C33.5276 54.0132 32.7597 54.5603 32.1133 55.2495C31.4668 55.9386 30.9545 56.7563 30.6055 57.6558C30.2566 58.5554 30.0779 59.5191 30.0796 60.492V109.453C30.0781 110.426 30.257 111.39 30.606 112.289C30.955 113.188 31.4674 114.006 32.1138 114.695C32.7603 115.384 33.5281 115.931 34.3735 116.304C35.2189 116.678 36.1253 116.871 37.041 116.873H124.668C128.214 122.148 134.645 131.595 135.212 131.595C135.744 131.595 134.723 122.673 134 116.873H148.342C149.258 116.871 150.164 116.678 151.01 116.304C151.855 115.931 152.623 115.384 153.269 114.695C153.916 114.006 154.428 113.188 154.777 112.289C155.126 111.39 155.305 110.426 155.303 109.453V60.492C155.305 59.5191 155.126 58.5554 154.778 57.6558C154.429 56.7563 153.916 55.9386 153.27 55.2495C152.623 54.5603 151.855 54.0132 151.01 53.6393C150.164 53.2655 149.258 53.0723 148.342 53.0707Z" fill="#DAEEF7"/>
</g>
<path d="M143.746 40.3658H32.4452C31.5286 40.3674 30.6213 40.561 29.7753 40.9355C28.9292 41.31 28.161 41.8581 27.5145 42.5484C26.8681 43.2387 26.3561 44.0576 26.0079 44.9583C25.6598 45.859 25.4822 46.8239 25.4854 47.7976V96.7519C25.4837 97.7246 25.6623 98.6882 26.0112 99.5876C26.36 100.487 26.8722 101.305 27.5185 101.994C28.1647 102.683 28.9325 103.23 29.7778 103.604C30.6231 103.978 31.5295 104.171 32.4452 104.173H120.07C123.617 109.448 130.046 118.895 130.614 118.895C131.144 118.895 130.126 109.972 129.4 104.173H143.743C144.659 104.172 145.565 103.978 146.411 103.605C147.256 103.231 148.024 102.684 148.671 101.994C149.317 101.305 149.829 100.488 150.178 99.588C150.527 98.6885 150.706 97.7248 150.704 96.7519V47.7976C150.708 46.824 150.53 45.8593 150.182 44.9587C149.834 44.0581 149.322 43.2393 148.676 42.549C148.03 41.8587 147.261 41.3106 146.416 40.936C145.57 40.5614 144.663 40.3677 143.746 40.3658Z" fill="#9BC1F9"/>
<path d="M91.7138 56.2456H37.1501C37.0638 56.2456 36.9939 56.3199 36.9939 56.4115V59.3116C36.9939 59.4033 37.0638 59.4775 37.1501 59.4775H91.7138C91.8001 59.4775 91.87 59.4033 91.87 59.3116V56.4115C91.87 56.3199 91.8001 56.2456 91.7138 56.2456Z" fill="white"/>
<path d="M60.4778 64.7765H37.1501C37.0638 64.7765 36.9939 64.8508 36.9939 64.9424V67.8425C36.9939 67.9341 37.0638 68.0084 37.1501 68.0084H60.4778C60.5641 68.0084 60.634 67.9341 60.634 67.8425V64.9424C60.634 64.8508 60.5641 64.7765 60.4778 64.7765Z" fill="white"/>
<path d="M136.715 64.7765H63.455C63.3688 64.7765 63.2988 64.8508 63.2988 64.9424V67.8425C63.2988 67.9341 63.3688 68.0084 63.455 68.0084H136.715C136.801 68.0084 136.871 67.9341 136.871 67.8425V64.9424C136.871 64.8508 136.801 64.7765 136.715 64.7765Z" fill="white"/>
<path d="M136.938 56.2456H97.6357C97.5494 56.2456 97.4795 56.3199 97.4795 56.4115V59.3116C97.4795 59.4033 97.5494 59.4775 97.6357 59.4775H136.938C137.024 59.4775 137.094 59.4033 137.094 59.3116V56.4115C137.094 56.3199 137.024 56.2456 136.938 56.2456Z" fill="white"/>
<path d="M136.938 81.4962H37.1501C37.0638 81.4962 36.9939 81.5705 36.9939 81.6621V84.5622C36.9939 84.6539 37.0638 84.7282 37.1501 84.7282H136.938C137.024 84.7282 137.094 84.6539 137.094 84.5622V81.6621C137.094 81.5705 137.024 81.4962 136.938 81.4962Z" fill="white"/>
<path d="M88.5496 73.3057H37.1501C37.0638 73.3057 36.9939 73.3799 36.9939 73.4716V76.3717C36.9939 76.4633 37.0638 76.5376 37.1501 76.5376H88.5496C88.6358 76.5376 88.7058 76.4633 88.7058 76.3717V73.4716C88.7058 73.3799 88.6358 73.3057 88.5496 73.3057Z" fill="white"/>
<path d="M136.938 73.3057H91.8652C91.7789 73.3057 91.709 73.3799 91.709 73.4716V76.3717C91.709 76.4633 91.7789 76.5376 91.8652 76.5376H136.938C137.024 76.5376 137.094 76.4633 137.094 76.3717V73.4716C137.094 73.3799 137.024 73.3057 136.938 73.3057Z" fill="white"/>
<path d="M235.058 26.4133L268.989 26.4133C269.067 26.4133 269.129 26.3468 269.129 26.2647V23.674C269.129 23.5919 269.067 23.5253 268.989 23.5253L235.058 23.5253C234.98 23.5253 234.918 23.5919 234.918 23.674V26.2647C234.918 26.3468 234.98 26.4133 235.058 26.4133Z" fill="white"/>
<g style="mix-blend-mode:multiply" opacity="0.3">
<path d="M224.87 15.397H324.305C325.123 15.3983 325.933 15.5709 326.688 15.9048C327.444 16.2388 328.13 16.7275 328.707 17.3432C329.285 17.9588 329.743 18.6893 330.054 19.493C330.366 20.2966 330.526 21.1576 330.524 22.0268V65.7719C330.526 66.641 330.366 67.5018 330.054 68.3052C329.742 69.1086 329.284 69.8389 328.707 70.4544C328.129 71.0699 327.443 71.5585 326.688 71.8923C325.933 72.2261 325.123 72.3986 324.305 72.4H246.021C242.852 77.1131 237.107 85.5524 236.6 85.5524C236.126 85.5524 237.039 77.5814 237.683 72.4H224.87C223.219 72.3949 221.638 71.6941 220.473 70.4513C219.309 69.2086 218.656 67.5256 218.659 65.7719V22.0268C218.656 20.2728 219.308 18.5894 220.473 17.3462C221.638 16.1031 223.219 15.402 224.87 15.397Z" fill="#DAEEF7"/>
</g>
<path d="M228.977 4.05066H328.411C330.064 4.05387 331.647 4.7541 332.813 5.99738C333.98 7.24066 334.633 8.92516 334.631 10.6804V54.4221C334.632 55.2912 334.472 56.152 334.16 56.9554C333.849 57.7588 333.391 58.4891 332.813 59.1046C332.236 59.7201 331.55 60.2087 330.794 60.5425C330.039 60.8763 329.229 61.0488 328.411 61.0502H250.126C246.959 65.7633 241.214 74.2026 240.706 74.2026C240.231 74.2026 241.146 66.2317 241.79 61.0502H228.977C228.159 61.0488 227.349 60.8763 226.594 60.5425C225.838 60.2087 225.152 59.7201 224.575 59.1046C223.997 58.4891 223.539 57.7588 223.228 56.9554C222.916 56.152 222.756 55.2912 222.757 54.4221V10.6804C222.756 9.81125 222.915 8.95026 223.227 8.14664C223.539 7.34303 223.997 6.61253 224.574 5.99687C225.152 5.38122 225.838 4.89247 226.593 4.55853C227.349 4.2246 228.158 4.05202 228.977 4.05066Z" fill="#9BC1F9"/>
<path d="M291.608 21.123L321.728 21.123C321.805 21.123 321.868 21.0565 321.868 20.9744V18.3837C321.868 18.3016 321.805 18.235 321.728 18.235L291.608 18.235C291.531 18.235 291.468 18.3016 291.468 18.3837V20.9744C291.468 21.0565 291.531 21.123 291.608 21.123Z" fill="white"/>
<path d="M301.473 30.5543L321.728 30.5543C321.805 30.5543 321.868 30.4878 321.868 30.4057V27.815C321.868 27.7329 321.805 27.6663 321.728 27.6663L301.473 27.6663C301.396 27.6663 301.333 27.7329 301.333 27.815V30.4057C301.333 30.4878 301.396 30.5543 301.473 30.5543Z" fill="white"/>
<path d="M273.725 30.5543L298.714 30.5543C298.791 30.5543 298.854 30.4878 298.854 30.4057V27.815C298.854 27.7329 298.791 27.6663 298.714 27.6663L273.725 27.6663C273.648 27.6663 273.585 27.7329 273.585 27.815V30.4057C273.585 30.4878 273.648 30.5543 273.725 30.5543Z" fill="white"/>
<path d="M235.207 30.5543L270.244 30.5543C270.321 30.5543 270.384 30.4878 270.384 30.4057V27.815C270.384 27.7329 270.321 27.6663 270.244 27.6663L235.207 27.6663C235.13 27.6663 235.067 27.7329 235.067 27.815V30.4057C235.067 30.4878 235.13 30.5543 235.207 30.5543Z" fill="white"/>
<path d="M235.059 21.123L285.766 21.123C285.843 21.123 285.906 21.0565 285.906 20.9744V18.3837C285.906 18.3016 285.843 18.235 285.766 18.235L235.059 18.235C234.982 18.235 234.919 18.3016 234.919 18.3837V20.9744C234.919 21.0565 234.982 21.123 235.059 21.123Z" fill="white"/>
<path d="M235.058 49.0282L321.726 49.0282C321.804 49.0282 321.866 48.9617 321.866 48.8796V46.2888C321.866 46.2067 321.804 46.1402 321.726 46.1402L235.058 46.1402C234.981 46.1402 234.918 46.2067 234.918 46.2888V48.8796C234.918 48.9617 234.981 49.0282 235.058 49.0282Z" fill="white"/>
<path d="M277.09 39.901L321.728 39.901C321.805 39.901 321.868 39.8345 321.868 39.7524V37.1616C321.868 37.0795 321.805 37.013 321.728 37.013L277.09 37.013C277.012 37.013 276.95 37.0795 276.95 37.1616V39.7524C276.95 39.8345 277.012 39.901 277.09 39.901Z" fill="white"/>
<path d="M235.058 39.901L274.581 39.901C274.658 39.901 274.721 39.8345 274.721 39.7524V37.1616C274.721 37.0795 274.658 37.013 274.581 37.013L235.058 37.013C234.98 37.013 234.918 37.0795 234.918 37.1616V39.7524C234.918 39.8345 234.98 39.901 235.058 39.901Z" fill="white"/>
<path d="M154.56 135.844C154.56 135.844 129.721 139.647 133.516 165.12C137.055 188.865 158.357 184.043 163.827 182.853C169.296 181.662 154.56 135.844 154.56 135.844Z" fill="#F7CC7F"/>
<path d="M163.833 182.853C166.381 182.3 164.547 172.07 161.86 161.294C152.715 163.195 142.528 165.324 133.877 167.137C138.291 188.585 158.521 184.009 163.833 182.853Z" fill="#E8BA70"/>
<path d="M168.855 187.256C168.855 187.256 174.312 207.951 172.875 224.03C171.535 239.024 173.545 241.524 178.792 241.048C184.039 240.573 196.768 237.246 196.99 231.888C197.213 226.531 194.875 199.042 186.05 184.285C177.224 169.529 168.855 187.256 168.855 187.256Z" fill="#96D9C9"/>
<path d="M177.336 178.63C173.838 181.128 168.857 187.262 168.857 187.262C168.857 187.262 174.313 207.956 172.877 224.035C171.536 239.03 173.547 241.529 178.794 241.053C180.718 240.881 183.648 240.319 186.603 239.418C188.692 202.559 179.742 182.796 177.336 178.63Z" fill="#50BFA5"/>
<path d="M229.813 85.6838C229.813 85.6838 188.617 117.549 175.303 127.187L167.516 139.505L173.048 175.386L186.36 182.348L251.421 196.002L249.914 188.236L238.108 153.427L232.079 113.796L230.32 89.4273L229.813 85.6838Z" fill="#96D9C9"/>
<path d="M238.102 153.43L236.522 143.039L170.684 160.074L173.043 175.386L186.356 182.348L251.416 196.003L249.908 188.238L238.102 153.43Z" fill="#50BFA5"/>
<path d="M175.303 127.187C175.303 127.187 169.861 157.625 186.356 182.348C186.356 182.348 187.277 184.638 185.267 186.067L172.988 189.399C172.988 189.399 167.294 191.541 162.493 182.853C157.692 174.164 149.206 154.648 154.232 133.109C154.232 133.109 155.458 127.277 162.158 126.206L171.089 124.42C171.089 124.42 175.059 123.765 175.303 127.187Z" fill="#3C8F7C"/>
<path d="M229.813 85.6839C229.813 85.6839 240.531 77.293 246.732 77.4727C252.934 77.6524 259.124 86.3977 263.144 93.5373C267.164 100.677 277.713 128.705 278.718 147.633C279.724 166.562 279.556 193.511 270.848 196.717C262.139 199.923 251.421 196.003 251.421 196.003C251.421 196.003 237.353 183.152 229.149 143.164C220.945 103.176 229.813 85.6839 229.813 85.6839Z" fill="#256653"/>
<path d="M264.674 197.789C264.674 197.789 274.692 183.962 269.587 146.603C261.548 87.794 241.279 78.9001 241.279 78.9001C241.279 78.9001 226.287 91.0415 240.622 147.866C252.422 194.704 264.674 197.789 264.674 197.789Z" fill="#3C8F7C"/>
<path d="M235.819 123.959C236.795 130.883 238.33 138.807 240.615 147.874C241.754 152.41 242.908 156.534 244.048 160.286C250.277 157.988 260.354 152.225 256.051 137.609C252.064 124.066 241.684 123.238 235.819 123.959Z" fill="#F7CC7F"/>
<path d="M240.622 147.867C241.76 152.403 242.914 156.527 244.054 160.279C250.197 158.012 260.081 152.376 256.227 138.202L239.292 142.362C239.701 144.154 240.144 145.988 240.622 147.867Z" fill="#E8BA70"/>
<g style="mix-blend-mode:multiply" opacity="0.3">
<path d="M186.356 182.348C181.187 174.6 178.173 166.29 176.469 158.532L154.705 162.912C156.434 169.904 159.054 176.613 162.493 182.853C167.294 191.541 172.988 189.4 172.988 189.4L185.267 186.067C187.276 184.638 186.356 182.348 186.356 182.348Z" fill="#3C8F7C"/>
</g>
<path d="M396.304 60.1117L396.205 71.5756L403.037 64.7366L424.59 49.1819L406.999 53.259C406.999 53.259 398.214 56.7968 397.771 57.3343C397.329 57.8718 396.304 60.1117 396.304 60.1117Z" fill="#DD513A"/>
<path d="M387.636 54.3375L424.595 49.1871L396.302 60.1135L387.636 54.3375Z" fill="#F47458"/>
<path d="M409.508 69.8957L398.855 62.8701L424.595 49.1871L409.508 69.8957Z" fill="#F47458"/>
<path d="M349.435 107.424C349.442 106.503 349.496 105.583 349.598 104.668C349.692 103.822 349.829 102.965 350.005 102.122L350.862 102.324C350.699 103.138 350.561 103.964 350.47 104.778C350.369 105.66 350.315 106.547 350.307 107.435C350.307 107.692 350.307 107.953 350.307 108.207L349.43 108.228C349.435 107.962 349.434 107.69 349.435 107.424ZM351.845 96.3181C352.639 94.4641 353.583 92.6866 354.666 91.0053L355.39 91.5342C354.334 93.1753 353.413 94.91 352.637 96.7191L351.845 96.3181ZM379.254 90.8325C379.199 90.8066 379.145 90.7772 379.092 90.7478L379.485 89.913C379.532 89.9372 379.58 89.9632 379.62 89.9822C379.65 89.9918 379.681 89.9982 379.711 90.0012C380.199 90.0634 381.446 89.8975 382.093 89.3617C382.663 88.8723 383.085 88.2153 383.305 87.4727L384.135 87.7786C383.857 88.6911 383.334 89.4977 382.632 90.0997C381.734 90.8446 380.219 91.0071 379.607 90.9293C379.485 90.9179 379.366 90.8852 379.254 90.8325ZM358.245 86.2335C359.537 84.7375 360.917 83.3291 362.375 82.0164L362.942 82.7302C361.513 84.0178 360.161 85.3998 358.896 86.8678L358.245 86.2335ZM374.941 84.0506C374.837 83.1322 374.837 82.2037 374.941 81.2853C375.001 80.7619 375.089 80.2425 375.205 79.7299L376.059 79.9494C375.951 80.4255 375.869 80.9079 375.813 81.3942C375.716 82.2379 375.716 83.0911 375.813 83.9348C375.883 84.5169 376.007 85.0901 376.184 85.6458L375.355 85.9483C375.155 85.3324 375.015 84.6966 374.937 84.0506H374.941ZM378.581 78.7724L378.464 78.7292L378.737 77.8408L378.864 77.8858C380.769 78.5771 382.43 79.9234 383.419 81.5809L382.68 82.0838C381.789 80.6027 380.294 79.3963 378.581 78.7724ZM367.393 78.966C368.323 78.5235 370.022 77.7561 370.943 77.5833C371.657 77.452 372.316 77.3569 372.955 77.2947L373.035 78.2262C372.42 78.2867 371.784 78.3783 371.091 78.5045C370.487 78.6151 369.269 79.0938 367.749 79.8145L367.393 78.966ZM377.58 74.099C378.647 72.3794 379.948 70.8366 381.439 69.5208L381.999 70.2415C380.573 71.4983 379.331 72.9724 378.312 74.6158L377.58 74.099Z" fill="#6DB1B5"/>
<path d="M386.715 67.2065C387.585 66.8226 388.483 66.5168 389.401 66.2922L389.206 65.3796C388.24 65.6156 387.295 65.937 386.38 66.3406L386.715 67.2065Z" fill="#6DB1B5"/>
<path d="M295.361 180.141L294.912 180.57C294.806 180.675 294.665 180.733 294.52 180.729C294.375 180.725 294.237 180.66 294.136 180.549L286.164 171.204C286.117 171.146 286.082 171.079 286.059 171.006C286.036 170.934 286.028 170.857 286.033 170.781C286.039 170.705 286.059 170.63 286.092 170.562C286.124 170.494 286.17 170.434 286.225 170.385L286.674 169.954C286.779 169.848 286.92 169.791 287.066 169.795C287.211 169.799 287.349 169.864 287.45 169.975L295.421 179.322C295.468 179.38 295.504 179.447 295.526 179.519C295.549 179.592 295.557 179.669 295.552 179.745C295.546 179.821 295.526 179.895 295.494 179.963C295.461 180.031 295.416 180.092 295.361 180.141Z" fill="#13375B"/>
<path d="M322.4 172.548C321.333 171.624 313.091 175.487 313.195 176.823C313.299 178.159 307.442 191.168 307.442 191.168L297.322 182.566C297.232 182.255 296.272 178.91 296.225 178.311C296.176 177.683 294.466 176.582 293.672 176.755C292.879 176.928 294.351 177.979 294.448 178.174C294.712 178.705 293.694 178.903 293.694 178.903C293.694 178.903 290.765 177.192 290.707 176.187C290.648 175.181 290.041 173.076 289.405 173.513C289.08 173.741 289.08 175.241 289.184 175.946C288.997 175.141 288.73 174.232 288.471 174.14C287.998 173.967 287.764 174.617 287.85 174.934C287.936 175.25 288.699 178.668 288.932 179.054C289.164 179.439 293.881 183.485 294.561 184.367C294.561 184.367 307.652 200.319 308.584 200.735C309.398 201.102 312.318 195.604 315.072 191.956C317.827 188.307 325.73 175.435 322.4 172.548Z" fill="#F7A491"/>
<path d="M348.809 289.845C348.809 289.845 350.598 291.717 350.649 292.403C350.699 293.089 350.812 300.447 350.073 301.133C349.334 301.819 347.182 302.306 347.875 303.079C348.399 303.663 352.43 303.539 355.105 303.381C355.884 303.336 356.862 296.701 357.171 295.725C357.62 294.309 358.712 291.119 358.31 290.132C358.111 289.652 357.16 288.663 355.821 287.74C354.41 286.769 353.055 284.609 353.055 284.609L348.809 289.845Z" fill="#F48C7F"/>
<path d="M330.179 294.202C330.179 294.202 331.788 299.042 331.79 299.062C331.91 299.831 332.382 301.729 332.382 302.427C332.382 305.049 321.285 300.2 323.771 299.038C323.997 298.933 324.703 298.093 324.777 297.199C324.89 295.817 323.843 294.099 323.843 294.099L330.179 294.202Z" fill="#F7A491"/>
<path d="M312.77 203.935C312.77 203.935 311.957 212.624 311.957 212.749C311.957 226.807 309.342 254.266 309.842 256.909C311.054 263.355 324.108 296.24 324.108 296.24L331.162 295.341L321.965 255.974L325.349 240.127L330.137 208.8L312.77 203.935Z" fill="#355389"/>
<path d="M336.445 211.62L337.784 219.857L341.407 253.755L355.199 286.886C355.199 286.886 353.26 291.707 350.397 292.384L328.444 258.369L314.807 214.844L315.285 205.165L336.445 211.62Z" fill="#13375B"/>
<path d="M309.958 183.242L319.74 184.306C319.74 184.306 320.189 175.758 320.189 171.679C320.189 166.733 319.794 160.359 319.232 160.497C317.659 160.881 315.541 161.807 314.28 163.655C309.915 170.048 309.958 183.242 309.958 183.242Z" fill="#86B1F2"/>
<path d="M314.763 170.806C314.558 172.315 310.797 213.323 310.797 213.323C328.61 222.493 338.439 214.956 338.439 214.956C338.439 214.956 337.857 186.157 338.555 182.237C339.017 179.645 339.594 162.412 338.018 161.93C335.994 161.311 333.674 160.653 331.146 160.374C328.987 160.136 320.604 159.998 319.107 160.535C319.104 160.537 315.621 164.458 314.763 170.806Z" fill="#9BC1F9"/>
<path d="M355.731 287.687C355.731 287.687 351.586 300.13 349.962 300.73C349.531 300.891 347.463 301.295 347.073 302.27C346.956 302.564 347.073 303.544 347.073 303.544H355.715C355.715 303.544 356.808 298.062 357.241 295.652C357.241 295.652 359.528 289.766 359.274 289.232C359.021 288.698 355.731 287.687 355.731 287.687Z" fill="#184655"/>
<path d="M333.014 303.292L331.741 299.014C331.741 299.014 329.073 300.224 327.739 300.016C326.405 299.809 323.799 299.014 323.799 299.014C318.473 300.882 314.109 301.779 314.903 303.292H333.014Z" fill="#184655"/>
<path d="M308.584 200.737C308.49 200.674 308.4 200.603 308.316 200.525C308.632 196.506 308.575 192.614 307.392 191.297L307.948 190.041C309.32 191.171 309.97 194.175 309.715 199.049C309.675 199.389 309.615 199.726 309.534 200.058C309.137 200.523 308.776 200.824 308.584 200.737Z" fill="#F7A491"/>
<path d="M356.081 213.76C356.091 213.672 356.091 213.583 356.081 213.496C355.819 210.656 353.606 186.807 353.234 185.794C352.897 184.878 342.976 169.752 342.976 169.752L338.096 176.838L347.637 190.405C347.852 191.27 351.295 207.365 351.295 207.365C351.295 207.365 352.001 210.303 352.316 212.058C352.171 212.481 352.03 212.882 351.905 213.21C351.617 213.832 351.273 214.422 350.876 214.972C350.45 215.58 349.738 216.911 349.658 217.269C349.557 217.682 349.375 218.542 349.272 219.062C349.17 219.583 349.028 220.186 349.004 220.468C348.938 220.735 348.834 220.99 348.696 221.225C348.654 221.304 348.636 221.395 348.643 221.486C348.65 221.577 348.683 221.663 348.738 221.734C348.792 221.804 348.865 221.856 348.947 221.882C349.03 221.907 349.118 221.906 349.199 221.878C349.546 221.755 349.814 221.278 349.982 220.979C350.45 220.138 350.701 218.603 350.818 218.684C350.935 218.765 351.347 221.372 351.412 221.665C351.477 221.959 351.97 224.987 352.248 225.54C352.526 226.093 352.899 226 352.993 225.654C353.078 225.355 352.686 221.121 352.686 221.121C352.686 221.121 352.637 220.582 352.858 220.749C353.079 220.917 353.444 224.762 353.598 225.324C353.753 225.886 354.104 226.188 354.402 225.734C354.766 225.184 354.142 221.107 354.142 221.107C354.142 221.107 354.072 220.589 354.277 220.642C354.482 220.696 354.739 223.966 354.9 224.249C355.061 224.533 355.463 224.635 355.655 224.161C355.881 223.604 355.295 219.97 355.295 219.97C355.295 219.97 355.323 219.681 355.458 219.778C355.593 219.875 355.993 222.649 356.258 222.906C356.284 222.936 356.316 222.959 356.351 222.975C356.386 222.991 356.423 222.999 356.462 222.999C356.5 222.999 356.537 222.991 356.572 222.975C356.607 222.959 356.639 222.936 356.665 222.906C357.153 222.561 356.406 219.911 356.414 218.599C356.423 217.288 355.85 215.81 356.021 214.247C356.032 214.152 356.063 213.912 356.081 213.76Z" fill="#F8A492"/>
<path d="M350.732 179.332L342.257 185.399C342.257 185.399 337.481 177.822 334.917 175.124C331.704 171.745 336.087 161.392 338.156 161.978C342.789 163.288 350.732 179.332 350.732 179.332Z" fill="#9BC1F9"/>
<path d="M330.523 151.51L331.79 160.416C331.79 160.416 327.161 171.021 324.397 170.094C322.079 169.322 323.506 159.939 323.506 159.939C323.506 159.939 324.768 154.901 324.389 152.379C324.01 149.858 330.523 151.51 330.523 151.51Z" fill="#F7A491"/>
<path d="M324.39 152.386C324.012 149.864 330.523 151.51 330.523 151.51L330.629 152.25C330.464 152.704 330.225 153.124 329.923 153.49C328.468 155.158 326.194 156.161 324.229 156.237C324.425 154.877 324.546 153.42 324.39 152.386Z" fill="#F47458"/>
<path d="M331.592 138.91C331.775 138.84 333.067 149.054 330.615 151.873C328.164 154.692 323.392 155.604 321.679 153.39C319.785 150.941 319.889 139.963 323.69 137.072C327.49 134.18 331.592 138.91 331.592 138.91Z" fill="#F7A491"/>
<path d="M325.141 131.6C327.276 132.089 329.215 133.268 330.694 134.975C332.031 135.148 333.848 135.931 335.724 139.242C338.031 143.314 336.327 147.827 333.641 150.041C330.956 152.255 330.993 154.811 330.993 154.811L330.568 153.489C330.249 152.489 330.135 151.428 330.232 150.378C330.283 149.733 330.429 149.102 330.666 148.506C331.317 147.027 329.278 146.045 328.714 144.814C328.274 143.867 328.253 141.703 327.56 140.136L326.735 138.94C326.735 138.94 324.829 137.36 322.964 137.806C321.1 138.252 321.362 130.777 325.141 131.6Z" fill="#184655"/>
<path d="M328.834 146.627C328.814 147.874 329.345 148.893 330.02 148.907C330.695 148.921 331.258 147.919 331.278 146.672C331.297 145.426 330.767 144.41 330.1 144.393C329.433 144.376 328.854 145.381 328.834 146.627Z" fill="#F7A491"/>
<path d="M324.855 149.507L321.162 149.303C321.162 149.303 321.173 150.803 322.789 150.943C324.773 151.114 324.855 149.507 324.855 149.507Z" fill="white"/>
<path d="M158.977 302.915L160.783 302.55L152.979 258.425L151.173 258.789L158.977 302.915Z" fill="#0E2E35"/>
<path d="M138.848 303.115H136.676L144.771 258.425L146.579 258.789L138.848 303.115Z" fill="#0E2E35"/>
<path d="M118.868 303.115L120.631 303.138L112.87 258.625L111.064 258.99L118.868 303.115Z" fill="#0E2E35"/>
<path d="M126.749 198.235C119.59 199.05 110.34 199.913 101.044 216.728C90.8891 235.098 96.235 262.54 104.251 270.165C112.266 277.79 138.444 287.206 160.451 273.103C160.451 273.103 173.739 264.562 166.919 250.385C156.426 228.568 157.908 224.018 153.216 215.473C148.524 206.928 141.931 196.501 126.749 198.235Z" fill="#FAE0B2"/>
<path d="M101.049 216.721C107.394 205.248 113.716 201.206 119.368 199.534C117.181 201.954 114.965 205.048 112.748 209.061C102.591 227.431 107.937 254.873 115.953 262.498C123.062 269.261 144.454 277.427 164.554 269.36C163.35 270.795 161.972 272.054 160.456 273.103C138.449 287.199 112.271 277.783 104.255 270.165C96.2398 262.547 90.8939 235.091 101.049 216.721Z" fill="#F7CC7F"/>
<path d="M149.71 226.157L151.549 232.037L145.947 229.688L149.71 226.157Z" fill="#F79C8D"/>
<path d="M143.935 208.663C144.309 208.679 145.332 209.043 146.829 212.047C148.741 215.884 151.534 227.476 151.534 227.476L143.196 230.775L142.124 228.356L140.361 209.73C140.361 209.73 143.832 208.658 143.935 208.663Z" fill="#DD513A"/>
<path d="M132.922 206.992C135.306 206.992 141.205 207.733 143.943 208.663C143.943 208.663 145.955 227.03 142.132 240.983C141.276 244.107 142.84 253.934 142.84 253.934L118.134 253.589C118.134 253.589 121.062 229.833 119.958 225.996C118.853 222.16 118.829 208.786 118.829 208.786L124.38 207.77C127.204 207.278 130.06 207.018 132.922 206.992Z" fill="#F47458"/>
<path d="M130.035 288.032C130.035 288.032 130.581 294.733 131.587 296.589C132.592 298.445 131.533 301.601 131.481 302.033C131.429 302.465 129.366 303.086 126.085 302.714C122.803 302.343 122.859 301.539 123.124 300.239C123.389 298.94 125.133 297.27 125.239 296.033C125.345 294.795 124.233 290.341 124.233 290.341L130.035 288.032Z" fill="#F7A491"/>
<path d="M140.045 248.406C140.045 248.406 157.1 247.4 160.908 249.851C164.717 252.301 160.22 257.332 160.22 257.332C160.22 257.332 146.335 263.744 123.09 265.17C117.586 265.516 117.111 249.923 118.141 248.634C119.171 247.344 140.045 248.406 140.045 248.406Z" fill="#256653"/>
<path d="M125.677 303.229C122.299 302.847 122.717 301.084 122.989 299.747C123.152 298.908 124.128 297.921 124.707 296.981C125.008 297.235 125.499 297.686 126.965 298.148C128.488 298.625 130.575 297.679 131.906 297.087C132.252 298.601 132.404 300.158 132.358 301.715C132.303 302.168 129.054 303.611 125.677 303.229Z" fill="#184655"/>
<path d="M127.541 261.368C128.221 266.845 131.595 294.114 131.595 294.114L123.767 295.151C123.767 295.151 114.14 259.56 114.635 254.116C115.129 248.672 118.731 248.214 118.731 248.214C118.731 248.214 125.737 246.868 127.541 261.368Z" fill="#3C8F7C"/>
<path d="M118.552 210.829C120.862 209.908 121.992 232.019 122.304 241.121C126.394 241.539 133.529 241.121 135.299 240.982C136.136 240.915 138.065 240.167 138.89 240.051C139.715 239.935 140.517 239.878 140.932 239.949C141.085 239.977 145.349 241.829 145.713 242.236C146.167 242.738 147.389 244.01 147.177 244.56C146.966 245.11 144.826 243.029 144.826 243.029L143.777 242.403C145.079 243.758 147.573 245.542 147.213 246.192C146.853 246.841 144.618 245.015 143.017 243.772C144.39 245.089 146.095 247.448 145.703 247.814C145.35 248.145 143.409 245.416 141.337 244.629C140.567 244.339 139.801 245.148 139.197 245.243C138.753 245.314 138.059 245.466 137.631 245.334L135.386 244.659C134.621 244.733 134.601 245.213 133.83 245.388C132.934 245.59 131.462 245.804 130.321 246.1C123.745 247.808 121.552 248.599 119.54 248.597C113.446 248.603 113.093 213.005 118.552 210.829Z" fill="#F7A491"/>
<path d="M114.168 231.588C113.735 222.265 113.799 210.775 118.723 208.814C120.664 208.041 124.092 212.692 123.471 231.778C120.84 232.008 116.979 232.193 114.168 231.588Z" fill="#DD513A"/>
<path d="M141.688 227.583H141.187L133.65 247.262L134.169 247.179L141.688 227.583Z" fill="#F79C8D"/>
<path d="M152.933 293.76C152.933 293.76 152.251 296.086 153.473 297.624C154.695 299.163 159.779 300.673 160.446 301.506C161.113 302.339 161.063 303.048 161.063 303.048L146.798 302.631L146.961 298.055L147.612 294.771L152.933 293.76Z" fill="#F7A491"/>
<path d="M154.353 298.392C154.353 298.392 150.688 299.966 148.918 299.035C147.148 298.103 147.2 297.844 146.688 298.191C146.175 298.539 145.993 302.828 145.993 302.828L162.032 303.329C163.148 303.302 163.713 302.429 162.805 301.681C162.184 301.162 161.466 300.816 161.058 300.576C159.802 299.812 154.353 298.392 154.353 298.392Z" fill="#184655"/>
<path d="M152.385 252.7C153.488 250.236 155.995 247.026 160.407 248.959C164.614 250.803 165.745 255.333 164.417 259.971C163.09 264.61 154.349 291.883 154.044 295.633L147.067 295.682C147.067 295.682 148.334 274.088 148.645 268.869C148.944 263.846 150.477 256.966 152.385 252.7Z" fill="#3C8F7C"/>
<path d="M163.714 227.581H140.386C140.084 227.582 139.789 227.678 139.538 227.857C139.288 228.037 139.093 228.292 138.979 228.589L131.797 247.255H118.931C118.759 247.255 118.593 247.328 118.471 247.457C118.349 247.587 118.281 247.763 118.281 247.946C118.281 248.129 118.349 248.305 118.471 248.435C118.593 248.565 118.759 248.637 118.931 248.637H155.536C156.029 248.637 156.512 248.485 156.926 248.199C157.339 247.914 157.666 247.507 157.867 247.028L165.099 229.856C165.201 229.61 165.243 229.341 165.223 229.074C165.203 228.806 165.121 228.548 164.984 228.322C164.846 228.097 164.658 227.911 164.437 227.782C164.215 227.652 163.967 227.584 163.714 227.581Z" fill="black"/>
<path d="M151.155 238.456C150.992 239.294 150.31 239.856 149.621 239.709C148.931 239.562 148.501 238.763 148.659 237.924C148.817 237.084 149.503 236.524 150.192 236.67C150.88 236.817 151.306 237.618 151.155 238.456Z" fill="white"/>
<path d="M138.454 184.559C137.75 184.313 137.061 184.02 136.391 183.682C135.635 183.295 134.655 182.841 134.037 182.74C132.735 182.526 130.499 182.67 129.264 184.092C127.725 185.865 124.992 184.412 125.541 193.7C126.166 204.211 131.667 203.057 131.802 202.879C131.937 202.701 136.708 196.154 136.708 196.154C136.708 196.154 138.377 200.032 138.377 199.89C138.377 199.749 146.902 187.581 138.454 184.559Z" fill="#0E2E35"/>
<path d="M134.281 203.656L134.756 207.412C134.756 207.412 135.82 212.823 134.45 213.867C133.081 214.911 128.629 207.258 128.629 207.258L129.1 197.74L134.281 203.656Z" fill="#F7A491"/>
<path d="M128.948 200.824C130.079 204.071 132.771 206.065 134.683 206.84L134.281 203.656L129.099 197.74L128.948 200.824Z" fill="#F47458"/>
<path d="M133.999 187.382C136.9 186.885 139.502 189.363 139.428 192.448C139.392 194.061 139.26 195.67 139.031 197.265C138.4 201.601 135.615 205.419 133.775 205.079C131.935 204.738 127.302 200.998 128.117 194.826C128.621 191.017 130.956 187.904 133.999 187.382Z" fill="#F7A491"/>
<path d="M129.394 195.568C129.239 196.522 128.52 197.186 127.788 197.049C127.056 196.912 126.591 196.031 126.745 195.079C126.9 194.126 127.621 193.461 128.351 193.598C129.082 193.734 129.55 194.61 129.394 195.568Z" fill="#F7A491"/>
<path d="M128.351 193.592C128.351 193.592 130.578 194.18 131.403 192.659C132.228 191.138 135.184 187.854 138.939 189.216C142.694 190.578 135.635 185.907 135.334 185.907C135.033 185.907 131.429 185.881 131.429 185.881C131.429 185.881 128.65 188.3 128.549 188.575C128.449 188.85 127.648 191.752 127.648 191.752L128.351 193.592Z" fill="#0E2E35"/>
<path d="M132.425 199.939L136.476 200.762C136.476 200.762 136.088 202.383 134.297 202.075C132.109 201.702 132.425 199.939 132.425 199.939Z" fill="white"/>
<path d="M90.5653 152.001L94.6162 152.823C94.6162 152.823 94.2307 154.444 92.4395 154.137C90.2545 153.762 90.5653 152.001 90.5653 152.001Z" fill="white"/>
<path d="M418.602 284.057C415.069 284.409 411.57 285.074 408.141 286.045C401.879 287.794 395.857 290.376 389.93 293.12C387.016 294.47 384.083 295.801 381.224 297.28C379.889 297.972 378.543 298.663 377.32 299.551C375.66 300.746 373.071 303.139 372.765 303.527L374.125 303.57C375.055 302.764 378.468 299.702 383.208 297.277C394.433 291.53 406.101 285.637 418.625 284.175C418.632 284.173 418.639 284.17 418.645 284.166C418.651 284.161 418.656 284.155 418.66 284.149C418.665 284.142 418.667 284.135 418.669 284.127C418.67 284.119 418.67 284.112 418.669 284.104C418.667 284.096 418.664 284.089 418.66 284.082C418.656 284.076 418.651 284.07 418.644 284.066C418.638 284.061 418.631 284.058 418.624 284.057C418.617 284.056 418.609 284.056 418.602 284.057Z" fill="#3C8F7C"/>
</svg>
