<svg width="546" height="79" viewBox="0 0 546 79" fill="none" xmlns="http://www.w3.org/2000/svg">
<rect width="546" height="78.93" rx="19" fill="white"/>
<g clip-path="url(#clip0_123_11)">
<path d="M41.2378 43.994L43.0055 42.2262L50.5186 49.7391L48.7509 51.5069L41.2378 43.994Z" fill="#616161"/>
<path d="M35.5 26.5001C32.8478 26.5001 30.3043 27.5537 28.4289 29.4291C26.5536 31.3044 25.5 33.848 25.5 36.5001C25.5 39.1523 26.5536 41.6958 28.4289 43.5712C30.3043 45.4466 32.8478 46.5001 35.5 46.5001C38.1522 46.5001 40.6957 45.4466 42.5711 43.5712C44.4464 41.6958 45.5 39.1523 45.5 36.5001C45.5 33.848 44.4464 31.3044 42.5711 29.4291C40.6957 27.5537 38.1522 26.5001 35.5 26.5001Z" fill="#616161"/>
<path d="M43.2849 46.0881L45.0526 44.3203L50.4886 49.7561L48.7209 51.5239L43.2849 46.0881Z" fill="#37474F"/>
<path d="M35.5 28.3751C33.3451 28.3751 31.2785 29.2311 29.7548 30.7549C28.231 32.2786 27.375 34.3452 27.375 36.5001C27.375 38.655 28.231 40.7216 29.7548 42.2454C31.2785 43.7691 33.3451 44.6251 35.5 44.6251C37.6549 44.6251 39.7215 43.7691 41.2452 42.2454C42.769 40.7216 43.625 38.655 43.625 36.5001C43.625 34.3452 42.769 32.2786 41.2452 30.7549C39.7215 29.2311 37.6549 28.3751 35.5 28.3751Z" fill="#64B5F6"/>
<path d="M39.8125 32.8751C38.75 31.6251 37.1875 30.8751 35.5 30.8751C33.8125 30.8751 32.25 31.6251 31.1875 32.8751C30.9375 33.1251 31 33.5626 31.25 33.7501C31.5 34.0001 31.9375 33.9376 32.125 33.6876C33 32.6876 34.1875 32.1251 35.5 32.1251C36.8125 32.1251 38 32.6876 38.875 33.6876C39 33.8126 39.1875 33.9376 39.375 33.9376C39.5 33.9376 39.6875 33.8751 39.75 33.8126C40 33.5626 40 33.1251 39.8125 32.8751Z" fill="#BBDEFB"/>
</g>
<path d="M81.046 34.146V49.48H79.044V42.528H71.234V49.48H69.232V34.146H71.234V40.878H79.044V34.146H81.046ZM89.7224 49.678C88.5931 49.678 87.5664 49.4213 86.6424 48.908C85.7331 48.3946 85.0144 47.6686 84.4864 46.73C83.9731 45.7766 83.7164 44.6766 83.7164 43.43C83.7164 42.198 83.9804 41.1126 84.5084 40.174C85.0511 39.2206 85.7844 38.4946 86.7084 37.996C87.6324 37.4826 88.6664 37.226 89.8104 37.226C90.9544 37.226 91.9884 37.4826 92.9124 37.996C93.8364 38.4946 94.5624 39.2133 95.0904 40.152C95.6331 41.0906 95.9044 42.1833 95.9044 43.43C95.9044 44.6766 95.6257 45.7766 95.0684 46.73C94.5257 47.6686 93.7851 48.3946 92.8464 48.908C91.9077 49.4213 90.8664 49.678 89.7224 49.678ZM89.7224 47.918C90.4411 47.918 91.1157 47.7493 91.7464 47.412C92.3771 47.0746 92.8831 46.5686 93.2644 45.894C93.6604 45.2193 93.8584 44.398 93.8584 43.43C93.8584 42.462 93.6677 41.6406 93.2864 40.966C92.9051 40.2913 92.4064 39.7926 91.7904 39.47C91.1744 39.1326 90.5071 38.964 89.7884 38.964C89.0551 38.964 88.3804 39.1326 87.7644 39.47C87.1631 39.7926 86.6791 40.2913 86.3124 40.966C85.9457 41.6406 85.7624 42.462 85.7624 43.43C85.7624 44.4126 85.9384 45.2413 86.2904 45.916C86.6571 46.5906 87.1411 47.0966 87.7424 47.434C88.3437 47.7566 89.0037 47.918 89.7224 47.918ZM114.597 37.424L110.835 49.48H108.767L105.863 39.91L102.959 49.48H100.891L97.1067 37.424H99.1527L101.925 47.544L104.917 37.424H106.963L109.889 47.566L112.617 37.424H114.597ZM124.891 39.074V46.18C124.891 46.7666 125.015 47.1846 125.265 47.434C125.514 47.6686 125.947 47.786 126.563 47.786H128.037V49.48H126.233C125.118 49.48 124.282 49.2233 123.725 48.71C123.167 48.1966 122.889 47.3533 122.889 46.18V39.074H121.327V37.424H122.889V34.388H124.891V37.424H128.037V39.074H124.891ZM135.72 49.678C134.591 49.678 133.564 49.4213 132.64 48.908C131.731 48.3946 131.012 47.6686 130.484 46.73C129.971 45.7766 129.714 44.6766 129.714 43.43C129.714 42.198 129.978 41.1126 130.506 40.174C131.049 39.2206 131.782 38.4946 132.706 37.996C133.63 37.4826 134.664 37.226 135.808 37.226C136.952 37.226 137.986 37.4826 138.91 37.996C139.834 38.4946 140.56 39.2133 141.088 40.152C141.631 41.0906 141.902 42.1833 141.902 43.43C141.902 44.6766 141.624 45.7766 141.066 46.73C140.524 47.6686 139.783 48.3946 138.844 48.908C137.906 49.4213 136.864 49.678 135.72 49.678ZM135.72 47.918C136.439 47.918 137.114 47.7493 137.744 47.412C138.375 47.0746 138.881 46.5686 139.262 45.894C139.658 45.2193 139.856 44.398 139.856 43.43C139.856 42.462 139.666 41.6406 139.284 40.966C138.903 40.2913 138.404 39.7926 137.788 39.47C137.172 39.1326 136.505 38.964 135.786 38.964C135.053 38.964 134.378 39.1326 133.762 39.47C133.161 39.7926 132.677 40.2913 132.31 40.966C131.944 41.6406 131.76 42.462 131.76 43.43C131.76 44.4126 131.936 45.2413 132.288 45.916C132.655 46.5906 133.139 47.0966 133.74 47.434C134.342 47.7566 135.002 47.918 135.72 47.918ZM146.603 46.708L144.139 52.626H142.797L144.403 46.708H146.603ZM171.626 42.99C171.626 43.3713 171.604 43.7746 171.56 44.2H161.924C161.998 45.388 162.401 46.3193 163.134 46.994C163.882 47.654 164.784 47.984 165.84 47.984C166.706 47.984 167.424 47.786 167.996 47.39C168.583 46.9793 168.994 46.4366 169.228 45.762H171.384C171.062 46.9206 170.416 47.8666 169.448 48.6C168.48 49.3186 167.278 49.678 165.84 49.678C164.696 49.678 163.67 49.4213 162.76 48.908C161.866 48.3946 161.162 47.6686 160.648 46.73C160.135 45.7766 159.878 44.6766 159.878 43.43C159.878 42.1833 160.128 41.0906 160.626 40.152C161.125 39.2133 161.822 38.4946 162.716 37.996C163.626 37.4826 164.667 37.226 165.84 37.226C166.984 37.226 167.996 37.4753 168.876 37.974C169.756 38.4726 170.431 39.162 170.9 40.042C171.384 40.9073 171.626 41.89 171.626 42.99ZM169.558 42.572C169.558 41.8093 169.39 41.1566 169.052 40.614C168.715 40.0566 168.253 39.6386 167.666 39.36C167.094 39.0666 166.456 38.92 165.752 38.92C164.74 38.92 163.875 39.2426 163.156 39.888C162.452 40.5333 162.049 41.428 161.946 42.572H169.558ZM176.711 39.074V46.18C176.711 46.7666 176.836 47.1846 177.085 47.434C177.334 47.6686 177.767 47.786 178.383 47.786H179.857V49.48H178.053C176.938 49.48 176.102 49.2233 175.545 48.71C174.988 48.1966 174.709 47.3533 174.709 46.18V39.074H173.147V37.424H174.709V34.388H176.711V37.424H179.857V39.074H176.711ZM181.535 43.43C181.535 42.1833 181.784 41.098 182.283 40.174C182.781 39.2353 183.471 38.5093 184.351 37.996C185.245 37.4826 186.265 37.226 187.409 37.226C188.89 37.226 190.107 37.5853 191.061 38.304C192.029 39.0226 192.667 40.02 192.975 41.296H190.819C190.613 40.5626 190.21 39.9833 189.609 39.558C189.022 39.1326 188.289 38.92 187.409 38.92C186.265 38.92 185.341 39.316 184.637 40.108C183.933 40.8853 183.581 41.9926 183.581 43.43C183.581 44.882 183.933 46.004 184.637 46.796C185.341 47.588 186.265 47.984 187.409 47.984C188.289 47.984 189.022 47.7786 189.609 47.368C190.195 46.9573 190.599 46.3706 190.819 45.608H192.975C192.652 46.84 192.007 47.83 191.039 48.578C190.071 49.3113 188.861 49.678 187.409 49.678C186.265 49.678 185.245 49.4213 184.351 48.908C183.471 48.3946 182.781 47.6686 182.283 46.73C181.784 45.7913 181.535 44.6913 181.535 43.43ZM196.284 49.612C195.903 49.612 195.58 49.48 195.316 49.216C195.052 48.952 194.92 48.6293 194.92 48.248C194.92 47.8666 195.052 47.544 195.316 47.28C195.58 47.016 195.903 46.884 196.284 46.884C196.651 46.884 196.959 47.016 197.208 47.28C197.472 47.544 197.604 47.8666 197.604 48.248C197.604 48.6293 197.472 48.952 197.208 49.216C196.959 49.48 196.651 49.612 196.284 49.612ZM200.903 49.612C200.522 49.612 200.199 49.48 199.935 49.216C199.671 48.952 199.539 48.6293 199.539 48.248C199.539 47.8666 199.671 47.544 199.935 47.28C200.199 47.016 200.522 46.884 200.903 46.884C201.27 46.884 201.578 47.016 201.827 47.28C202.091 47.544 202.223 47.8666 202.223 48.248C202.223 48.6293 202.091 48.952 201.827 49.216C201.578 49.48 201.27 49.612 200.903 49.612Z" fill="#727272"/>
<path d="M356.405 0H527C537.493 0 546 8.50659 546 19V59.9299C546 70.4234 537.493 78.93 527 78.93H356.405V0Z" fill="#184655"/>
<path d="M418.366 47.634C417.236 47.634 416.224 47.4506 415.33 47.084C414.435 46.7173 413.716 46.1746 413.174 45.456C412.646 44.7373 412.367 43.872 412.338 42.86H416.342C416.4 43.432 416.598 43.872 416.936 44.18C417.273 44.4733 417.713 44.62 418.256 44.62C418.813 44.62 419.253 44.4953 419.576 44.246C419.898 43.982 420.06 43.6226 420.06 43.168C420.06 42.7866 419.928 42.4713 419.664 42.222C419.414 41.9726 419.099 41.7673 418.718 41.606C418.351 41.4446 417.823 41.2613 417.134 41.056C416.136 40.748 415.322 40.44 414.692 40.132C414.061 39.824 413.518 39.3693 413.064 38.768C412.609 38.1666 412.382 37.382 412.382 36.414C412.382 34.9766 412.902 33.8546 413.944 33.048C414.985 32.2266 416.342 31.816 418.014 31.816C419.715 31.816 421.086 32.2266 422.128 33.048C423.169 33.8546 423.726 34.984 423.8 36.436H419.73C419.7 35.9373 419.517 35.5486 419.18 35.27C418.842 34.9766 418.41 34.83 417.882 34.83C417.427 34.83 417.06 34.9546 416.782 35.204C416.503 35.4386 416.364 35.7833 416.364 36.238C416.364 36.7366 416.598 37.1253 417.068 37.404C417.537 37.6826 418.27 37.9833 419.268 38.306C420.265 38.6433 421.072 38.966 421.688 39.274C422.318 39.582 422.861 40.0293 423.316 40.616C423.77 41.2026 423.998 41.958 423.998 42.882C423.998 43.762 423.77 44.5613 423.316 45.28C422.876 45.9986 422.23 46.5706 421.38 46.996C420.529 47.4213 419.524 47.634 418.366 47.634ZM437.885 41.144C437.885 41.496 437.863 41.8626 437.819 42.244H429.305C429.363 43.0066 429.605 43.5933 430.031 44.004C430.471 44.4 431.006 44.598 431.637 44.598C432.575 44.598 433.228 44.202 433.595 43.41H437.599C437.393 44.2166 437.019 44.9426 436.477 45.588C435.949 46.2333 435.281 46.7393 434.475 47.106C433.668 47.4726 432.766 47.656 431.769 47.656C430.566 47.656 429.495 47.3993 428.557 46.886C427.618 46.3726 426.885 45.6393 426.357 44.686C425.829 43.7326 425.565 42.618 425.565 41.342C425.565 40.066 425.821 38.9513 426.335 37.998C426.863 37.0446 427.596 36.3113 428.535 35.798C429.473 35.2846 430.551 35.028 431.769 35.028C432.957 35.028 434.013 35.2773 434.937 35.776C435.861 36.2746 436.579 36.986 437.093 37.91C437.621 38.834 437.885 39.912 437.885 41.144ZM434.035 40.154C434.035 39.5086 433.815 38.9953 433.375 38.614C432.935 38.2326 432.385 38.042 431.725 38.042C431.094 38.042 430.559 38.2253 430.119 38.592C429.693 38.9586 429.429 39.4793 429.327 40.154H434.035ZM439.121 41.32C439.121 40.0586 439.356 38.9513 439.825 37.998C440.309 37.0446 440.962 36.3113 441.783 35.798C442.605 35.2846 443.521 35.028 444.533 35.028C445.399 35.028 446.154 35.204 446.799 35.556C447.459 35.908 447.965 36.37 448.317 36.942V35.204H452.079V47.48H448.317V45.742C447.951 46.314 447.437 46.776 446.777 47.128C446.132 47.48 445.377 47.656 444.511 47.656C443.514 47.656 442.605 47.3993 441.783 46.886C440.962 46.358 440.309 45.6173 439.825 44.664C439.356 43.696 439.121 42.5813 439.121 41.32ZM448.317 41.342C448.317 40.4033 448.053 39.6626 447.525 39.12C447.012 38.5773 446.381 38.306 445.633 38.306C444.885 38.306 444.247 38.5773 443.719 39.12C443.206 39.648 442.949 40.3813 442.949 41.32C442.949 42.2586 443.206 43.0066 443.719 43.564C444.247 44.1066 444.885 44.378 445.633 44.378C446.381 44.378 447.012 44.1066 447.525 43.564C448.053 43.0213 448.317 42.2806 448.317 41.342ZM458.563 37.25C459.003 36.5753 459.553 36.0473 460.213 35.666C460.873 35.27 461.606 35.072 462.413 35.072V39.054H461.379C460.44 39.054 459.736 39.2593 459.267 39.67C458.798 40.066 458.563 40.77 458.563 41.782V47.48H454.801V35.204H458.563V37.25ZM463.463 41.342C463.463 40.066 463.72 38.9513 464.233 37.998C464.761 37.0446 465.487 36.3113 466.411 35.798C467.35 35.2846 468.421 35.028 469.623 35.028C471.163 35.028 472.447 35.4313 473.473 36.238C474.515 37.0446 475.197 38.1813 475.519 39.648H471.515C471.178 38.7093 470.525 38.24 469.557 38.24C468.868 38.24 468.318 38.5113 467.907 39.054C467.497 39.582 467.291 40.3446 467.291 41.342C467.291 42.3393 467.497 43.1093 467.907 43.652C468.318 44.18 468.868 44.444 469.557 44.444C470.525 44.444 471.178 43.9746 471.515 43.036H475.519C475.197 44.4733 474.515 45.6026 473.473 46.424C472.432 47.2453 471.149 47.656 469.623 47.656C468.421 47.656 467.35 47.3993 466.411 46.886C465.487 46.3726 464.761 45.6393 464.233 44.686C463.72 43.7326 463.463 42.618 463.463 41.342ZM485.078 35.072C486.486 35.072 487.615 35.5413 488.466 36.48C489.316 37.404 489.742 38.68 489.742 40.308V47.48H486.002V40.814C486.002 39.9926 485.789 39.3546 485.364 38.9C484.938 38.4453 484.366 38.218 483.648 38.218C482.929 38.218 482.357 38.4453 481.932 38.9C481.506 39.3546 481.294 39.9926 481.294 40.814V47.48H477.532V31.2H481.294V36.854C481.675 36.3113 482.196 35.8786 482.856 35.556C483.516 35.2333 484.256 35.072 485.078 35.072Z" fill="white"/>
<defs>
<clipPath id="clip0_123_11">
<rect width="31.7347" height="31.7347" fill="white" transform="translate(22.7839 24.4113)"/>
</clipPath>
</defs>
</svg>
